<?xml version="1.0" standalone="no"?>
<!DOCTYPE svg PUBLIC "-//W3C//DTD SVG 20010904//EN"
 "http://www.w3.org/TR/2001/REC-SVG-20010904/DTD/svg10.dtd">
<svg version="1.0" xmlns="http://www.w3.org/2000/svg"
 width="16.000000pt" height="16.000000pt" viewBox="0 0 16.000000 16.000000"
 preserveAspectRatio="xMidYMid meet">
<metadata>
Created by potrace 1.11, written by Peter Selinger 2001-2013
</metadata>
<g transform="translate(0.000000,16.000000) scale(0.000905,-0.000905)"
fill="#000000" stroke="none">
<path d="M4501 11856 c2 -2 117 -6 254 -8 138 -3 241 -2 230 3 -19 7 -492 13
-484 5z"/>
<path d="M4415 11780 c-41 -41 -66 -74 -62 -82 6 -17 130 -79 205 -103 28 -10
52 -20 52 -24 0 -3 10 -12 21 -20 20 -12 21 -11 16 8 -9 34 7 24 26 -17 20
-41 62 -72 87 -65 13 4 13 3 0 -6 -24 -17 28 -29 90 -21 63 8 281 -17 292 -34
4 -6 5 -21 1 -33 -6 -26 -1 -28 26 -11 17 10 17 13 5 23 -8 6 -16 19 -18 30
-2 17 -19 22 -107 37 -57 10 -133 22 -169 27 l-65 8 53 2 c29 0 51 5 48 10 -4
5 0 11 6 14 8 3 3 9 -12 15 l-25 11 25 0 c14 1 33 -8 43 -19 21 -25 21 -28 0
-33 -10 -2 0 -7 22 -11 22 -3 62 -11 88 -16 27 -6 64 -10 84 -10 29 0 33 2 24
14 -15 18 -5 24 34 21 47 -4 52 -6 25 -15 -22 -7 -21 -8 12 -9 27 -1 36 -5 32
-15 -4 -11 4 -13 38 -9 24 3 54 0 68 -6 21 -10 17 -11 -25 -7 -43 5 -46 4 -20
-4 17 -6 62 -10 100 -9 39 1 92 -2 119 -6 37 -6 50 -5 57 6 7 11 9 10 9 -3 0
-10 7 -18 15 -18 8 0 15 7 15 15 0 17 11 19 25 6 6 -4 49 -14 98 -21 48 -6 87
-17 87 -22 0 -6 6 -8 14 -5 10 4 17 -3 21 -22 5 -24 11 -28 43 -29 47 -2 75
13 38 20 -15 3 -29 1 -32 -4 -7 -11 -24 9 -24 27 0 6 5 3 10 -5 8 -12 10 -12
10 5 1 18 2 18 13 4 13 -17 106 -34 175 -31 23 1 42 -2 42 -7 0 -9 133 -23
255 -26 70 -2 198 -18 245 -32 14 -3 34 -7 45 -9 11 -1 89 -16 174 -33 85 -16
157 -29 160 -27 4 3 29 0 56 -5 28 -6 88 -16 135 -24 47 -7 128 -21 180 -31
52 -9 102 -17 110 -17 8 0 21 -4 27 -9 7 -6 19 -8 28 -5 8 4 38 0 67 -7 29 -8
80 -17 113 -21 33 -3 98 -12 145 -20 47 -8 119 -19 160 -25 41 -6 107 -18 145
-26 39 -7 86 -16 105 -18 50 -6 253 -42 335 -60 39 -8 97 -17 130 -21 33 -4
101 -16 150 -27 79 -18 94 -25 120 -56 17 -20 45 -52 63 -72 44 -45 58 -68 67
-105 6 -29 6 -29 -14 -11 -12 11 -21 29 -22 40 0 12 -3 15 -6 9 -7 -18 -32
-16 -39 2 -4 8 -15 15 -25 15 -18 0 -18 -1 1 -35 11 -19 16 -35 12 -35 -10 0
-39 20 -28 20 5 0 3 7 -4 15 -8 10 -30 15 -63 15 -42 0 -61 7 -115 42 -50 33
-65 39 -72 28 -6 -9 -10 1 -12 30 l-4 45 -8 -32 c-10 -40 -26 -43 -27 -5 -1
26 -2 25 -13 -8 -11 -35 -11 -35 -69 -34 -31 1 -60 -2 -63 -7 -7 -12 -44 -11
-44 1 0 13 -57 13 -65 -1 -5 -6 -13 -3 -22 10 -11 16 -22 20 -49 17 -23 -3
-47 2 -69 14 -24 14 -35 16 -38 7 -3 -9 -9 -9 -23 -1 -11 6 -58 23 -106 38
-74 24 -100 28 -178 25 -87 -4 -91 -3 -97 19 -3 12 -3 36 -1 52 3 17 1 27 -3
23 -4 -4 -9 -27 -10 -50 -3 -39 -5 -41 -36 -45 -18 -2 -33 0 -33 4 0 4 -8 8
-18 8 -10 0 -22 4 -27 8 -17 15 -91 32 -139 32 -25 0 -46 5 -46 10 0 6 18 10
40 10 22 0 40 5 40 10 0 14 -77 13 -82 -2 -3 -9 -15 -8 -49 1 -77 22 -105 24
-138 6 -27 -13 -38 -14 -68 -4 -20 6 -55 11 -79 11 -24 -1 -44 3 -44 8 0 4
-15 18 -33 29 -27 16 -43 19 -90 14 -47 -5 -58 -3 -63 11 -3 9 -12 16 -19 16
-19 0 -78 32 -88 48 -10 15 -44 16 -49 0 -3 -9 -15 -9 -50 0 -26 7 -70 12 -98
12 -28 0 -61 6 -73 14 -29 18 -97 30 -97 17 0 -5 10 -12 23 -14 22 -4 22 -4 0
-6 -12 0 -29 6 -38 15 -9 9 -29 17 -45 19 -15 1 -36 10 -45 19 -10 10 -25 14
-36 11 -13 -4 -19 -2 -19 9 0 16 -5 17 -105 20 -22 1 -50 5 -62 9 -15 5 -23 4
-23 -2 0 -6 8 -11 18 -12 12 0 10 -3 -8 -10 -27 -11 -101 -6 -153 10 -18 6
-68 18 -112 27 -44 9 -96 24 -116 35 -20 10 -47 19 -60 19 -20 0 -21 2 -9 11
12 8 11 9 -5 5 -11 -3 -61 -8 -110 -10 -67 -3 -96 0 -110 10 -10 8 -38 14 -62
14 -41 0 -43 1 -43 31 l0 31 -75 -7 c-76 -7 -120 -1 -110 16 4 5 -1 9 -9 9 -9
0 -16 -4 -16 -9 0 -14 -32 -23 -43 -12 -7 7 -20 3 -39 -10 -15 -11 -28 -16
-28 -10 0 6 -13 11 -29 11 -16 0 -34 7 -41 15 -7 8 -24 15 -39 15 -15 0 -35 6
-46 14 -11 7 -38 16 -60 20 -118 18 -129 14 -73 -25 17 -13 79 -65 136 -116
132 -118 196 -153 337 -187 86 -20 709 -151 870 -183 17 -3 50 -25 75 -49 25
-23 63 -49 85 -58 59 -23 213 -60 485 -116 193 -41 268 -61 369 -102 69 -27
187 -73 261 -100 155 -58 170 -69 324 -253 110 -131 137 -176 165 -274 20 -73
20 -75 2 -115 -29 -67 -574 -908 -680 -1050 -53 -72 -146 -199 -206 -283 -106
-145 -112 -151 -148 -155 -21 -2 -41 0 -43 4 -3 4 -24 8 -47 8 -23 0 -58 4
-77 10 -39 10 -134 23 -165 22 -11 -1 -39 -6 -62 -13 -33 -9 -60 -8 -135 5
-51 9 -109 18 -128 21 -19 2 -75 11 -125 19 -49 8 -93 12 -97 10 -4 -3 -8 -1
-8 4 0 6 -24 12 -52 15 -29 3 -102 12 -162 21 -105 16 -167 14 -135 -4 14 -8
305 -53 349 -54 14 -1 27 -3 30 -6 3 -3 70 -16 150 -29 179 -29 243 -42 237
-48 -3 -2 -34 1 -68 6 -35 6 -79 14 -97 17 -21 3 -32 2 -28 -5 4 -5 1 -13 -5
-17 -8 -4 -9 -3 -5 4 5 8 -3 10 -26 7 -26 -4 -28 -3 -8 3 16 5 21 10 13 15 -6
4 -23 3 -38 -3 -36 -14 -159 -2 -219 22 -36 14 -51 16 -56 7 -5 -8 -13 -8 -25
-1 -16 8 -14 11 14 17 18 4 30 9 27 12 -10 10 -76 -19 -70 -30 5 -8 2 -8 -7 1
-7 6 -29 12 -48 12 -34 0 -34 0 45 -60 52 -39 89 -60 109 -61 17 -1 44 -5 60
-10 25 -7 23 -7 -12 -4 -24 3 -43 2 -43 -2 0 -5 47 -38 103 -76 148 -98 318
-217 341 -239 12 -11 46 -36 76 -55 30 -20 57 -39 60 -43 3 -3 39 -22 80 -42
54 -26 76 -43 77 -57 2 -24 -35 -60 -45 -44 -10 16 -91 22 -85 6 14 -36 -42
-4 -279 160 -54 37 -100 67 -104 67 -3 0 -21 12 -39 26 -20 15 -39 23 -46 18
-8 -5 -9 -3 -4 6 6 10 4 12 -9 7 -9 -4 -15 -3 -11 2 3 5 -9 20 -27 32 -18 13
-35 26 -38 29 -3 3 -21 16 -40 27 -19 12 -45 31 -56 41 -12 11 -30 20 -40 19
-10 -1 -23 7 -28 18 -5 11 -50 50 -100 87 -127 94 -160 120 -424 338 -153 126
-159 130 -251 210 -42 36 -98 83 -126 105 -27 21 -52 42 -55 45 -3 4 -51 35
-108 71 l-103 64 93 22 c51 13 98 25 103 28 23 11 -110 -8 -147 -21 -22 -8
-42 -14 -43 -14 -2 0 -1 10 3 22 3 14 1 19 -6 14 -12 -7 -25 25 -17 45 4 10
27 14 88 14 45 1 101 4 125 8 51 9 68 2 50 -20 -12 -15 -11 -15 9 -3 19 12 29
9 105 -36 119 -71 234 -119 383 -159 72 -19 169 -48 217 -64 87 -29 155 -33
185 -9 6 5 24 13 40 17 18 5 -6 8 -67 8 -68 -1 -106 4 -132 16 -56 25 -46 27
23 6 33 -10 73 -19 87 -18 18 0 11 5 -23 13 -115 28 -219 112 -274 222 -17 34
-31 66 -31 72 0 5 -7 12 -15 16 -8 3 -15 11 -15 18 0 9 3 9 11 -2 8 -12 9 -11
5 5 -19 71 -26 118 -26 178 0 37 -3 67 -6 67 -12 0 -33 -34 -34 -52 0 -15 -9
-18 -57 -17 -49 1 -53 3 -23 8 34 6 33 7 -25 18 -74 13 -183 41 -210 53 -11 5
-40 14 -64 20 l-45 12 95 89 c105 99 108 100 207 69 35 -11 74 -17 87 -14 13
3 31 1 42 -4 31 -16 73 -23 73 -12 0 5 -7 10 -15 10 -8 0 -15 4 -15 8 0 5 -10
14 -22 20 -21 10 -20 11 15 11 20 1 37 6 37 11 0 6 7 10 15 10 18 0 20 -17 3
-23 -7 -2 -10 -7 -7 -11 3 -3 46 33 95 81 138 136 234 212 346 273 37 20 65
49 37 38 -9 -3 -26 3 -40 13 -13 10 -30 19 -37 19 -7 0 -10 5 -6 12 4 6 3 8
-3 5 -12 -7 -119 38 -128 54 -4 5 -15 9 -27 9 -13 0 -18 5 -15 14 4 9 0 12
-13 9 -10 -3 -21 0 -24 6 -5 8 -13 8 -28 0 -15 -8 -19 -8 -14 0 4 6 0 11 -8
11 -9 0 -16 5 -16 11 0 7 -10 9 -26 5 -16 -4 -23 -3 -20 3 9 14 -41 -2 -89
-29 -37 -21 -38 -21 -15 -1 14 11 33 23 43 27 35 11 15 23 -33 19 -27 -2 -52
0 -55 4 -2 5 -31 12 -62 16 -32 4 -67 12 -78 18 -11 5 -85 17 -165 24 -80 8
-158 17 -175 19 -16 2 -85 5 -151 6 -67 2 -117 6 -110 10 18 12 -22 9 -66 -4
-28 -8 -41 -9 -46 -1 -5 8 -29 8 -82 1 -41 -5 -84 -10 -96 -11 -16 -2 -24 -13
-34 -45 -7 -24 -20 -46 -29 -50 -9 -3 -22 -12 -29 -19 -11 -11 -8 -13 20 -15
18 0 44 -1 58 0 l25 2 -25 -11 c-14 -6 -41 -9 -62 -7 -20 2 -34 0 -32 -4 3 -5
-5 -8 -18 -9 -22 0 -22 -1 -3 -9 18 -8 18 -9 2 -9 -15 -1 -17 -7 -11 -38 4
-27 22 -54 58 -92 34 -35 44 -51 31 -48 -11 3 -49 11 -85 17 -66 11 -121 24
-525 120 -164 39 -166 40 -161 49 5 8 -93 40 -159 52 -90 16 -241 50 -260 58
-11 5 -56 16 -100 25 -44 9 -118 26 -165 37 -47 11 -94 22 -105 23 -11 2 -27
6 -35 9 -31 12 -133 27 -143 20 -5 -3 -7 -1 -4 4 6 9 -67 30 -133 38 -41 5
-136 28 -164 40 -28 12 -119 32 -187 40 -15 2 -48 10 -75 19 -27 8 -94 27
-149 42 -115 31 -151 47 -184 82 -19 21 -22 32 -17 64 5 29 3 38 -8 38 -8 0
-16 -6 -19 -12 -2 -7 -8 -9 -13 -5 -5 4 -4 11 2 15 6 4 16 21 22 37 15 38 55
83 104 120 21 15 35 32 31 38 -5 8 -8 7 -11 -1 -2 -7 -17 -12 -33 -12 -20 0
-27 4 -23 14 6 15 -100 42 -276 71 -52 9 -112 20 -132 26 -20 5 -58 11 -85 13
-26 3 -95 11 -153 20 -58 8 -139 20 -180 26 -41 6 -100 15 -131 20 -30 6 -66
11 -80 11 -14 1 -4 6 26 13 l50 12 -110 7 c-288 18 -365 20 -365 10 0 -6 43
-13 96 -16 56 -3 101 -11 108 -18 8 -9 6 -10 -9 -5 -11 4 -73 9 -138 11 -98 4
-124 1 -160 -14 -54 -24 -160 -131 -155 -157 2 -10 39 -43 82 -73 44 -30 76
-49 71 -41 -5 8 -3 11 6 8 8 -3 14 -10 14 -15 0 -6 4 -15 9 -20 5 -5 6 -3 2 5
-9 15 6 16 21 1 8 -8 13 -8 17 0 4 6 2 11 -3 11 -6 0 -11 5 -11 12 0 7 7 5 18
-5 11 -10 26 -14 40 -10 19 4 22 2 20 -18 -2 -13 -7 -27 -13 -31 -5 -4 2 -8
18 -8 29 0 37 -17 12 -26 -17 -7 30 -52 305 -296 l175 -155 390 -102 c215 -56
507 -136 649 -177 216 -63 266 -81 300 -108 57 -46 186 -96 431 -167 405 -117
564 -170 692 -230 71 -33 185 -85 254 -114 69 -30 162 -75 205 -101 43 -26
198 -108 344 -182 263 -134 438 -229 557 -303 81 -50 500 -362 680 -507 134
-107 141 -115 133 -138 -7 -17 -7 -23 0 -19 6 4 11 -8 11 -27 1 -24 3 -27 6
-10 6 29 27 23 31 -8 3 -17 6 -20 12 -10 10 16 30 4 123 -69 123 -96 174 -161
193 -246 14 -60 34 -85 87 -109 29 -14 68 -27 87 -31 58 -11 145 -59 142 -78
-2 -11 7 -21 23 -27 14 -5 25 -15 25 -22 1 -20 51 -52 79 -50 13 1 30 -3 38
-10 11 -9 16 -9 22 0 5 9 15 10 32 3 13 -5 18 -10 12 -10 -7 -1 -13 -6 -13
-12 0 -6 8 -8 19 -4 12 3 21 0 25 -10 4 -11 20 -15 56 -15 30 0 50 -4 50 -11
0 -6 9 -9 20 -6 11 3 23 1 26 -5 3 -5 17 -7 29 -4 13 3 27 2 30 -4 3 -5 17
-10 31 -10 13 0 24 -4 24 -10 0 -5 6 -10 13 -10 7 0 27 -14 45 -30 31 -28 33
-29 28 -8 -3 13 -3 17 0 11 3 -7 13 -13 23 -13 9 0 27 -13 39 -30 13 -16 31
-30 42 -30 10 0 22 -4 25 -10 3 -5 19 -7 35 -3 22 4 31 1 36 -11 7 -17 34 -22
34 -6 0 6 8 2 18 -7 11 -10 17 -21 15 -25 -7 -13 37 -19 58 -7 12 6 37 9 55 6
19 -3 36 -1 39 4 4 5 14 5 26 -1 13 -8 25 -7 39 0 12 6 31 8 43 4 30 -9 399
-160 465 -190 29 -13 61 -24 72 -24 10 0 21 -4 24 -9 4 -5 45 -21 94 -36 48
-15 93 -30 100 -32 6 -3 12 0 12 6 0 6 -10 11 -22 11 -12 0 -19 3 -15 6 7 7
106 -14 122 -26 6 -4 24 -10 40 -14 17 -4 49 -14 73 -23 33 -12 42 -21 42 -39
0 -13 5 -24 11 -24 6 0 3 -7 -5 -16 -9 -8 -16 -24 -16 -35 0 -10 -3 -19 -7
-19 -11 0 -307 103 -361 126 -40 16 -67 14 -46 -5 11 -11 200 -81 318 -118 77
-25 109 -44 94 -58 -8 -8 -294 97 -420 154 -135 62 -179 81 -184 81 -3 0 -44
18 -90 40 -47 22 -89 40 -94 40 -10 0 -62 22 -122 50 -20 10 -39 16 -42 12
-13 -12 -5 -31 16 -38 21 -6 81 -32 206 -90 29 -13 55 -24 57 -24 3 0 40 -16
82 -36 43 -20 94 -43 113 -51 19 -8 60 -25 90 -38 76 -33 183 -73 293 -109 64
-22 93 -36 95 -48 3 -15 -22 -9 -150 36 -84 30 -177 65 -207 79 -51 24 -71 26
-71 8 0 -5 39 -23 88 -41 48 -19 92 -37 97 -40 6 -4 28 -13 50 -19 22 -7 47
-15 55 -18 8 -3 42 -15 75 -27 57 -20 60 -23 63 -58 l3 -36 -48 13 c-131 37
-333 126 -383 170 -8 8 -28 17 -45 21 -16 4 -32 10 -35 13 -15 18 -282 150
-465 231 -77 34 -160 70 -185 82 -25 11 -54 23 -65 28 -11 4 -90 36 -175 70
-85 34 -197 77 -249 96 -51 19 -112 43 -135 53 -22 10 -84 34 -136 54 -52 19
-198 73 -325 120 -126 47 -243 89 -260 93 -16 4 -34 10 -40 13 -19 13 -220 87
-257 95 -15 3 -33 12 -40 19 -7 7 -21 16 -30 20 -18 6 -25 42 -10 50 4 3 5 35
4 71 -3 54 -7 68 -24 77 -16 9 -20 7 -25 -10 -3 -12 -9 -21 -12 -21 -4 0 -7
-27 -7 -59 0 -45 3 -58 13 -54 17 7 17 -5 -2 -23 -23 -23 -18 -39 19 -68 33
-25 131 -64 571 -228 l190 -71 212 -151 c117 -83 212 -154 213 -159 0 -4 -11
-12 -25 -19 -13 -6 -22 -15 -18 -21 3 -6 1 -7 -5 -4 -5 4 -17 4 -26 1 -14 -5
-14 -9 2 -36 20 -36 49 -50 391 -188 135 -54 433 -182 661 -285 228 -103 426
-191 440 -197 64 -25 120 -95 165 -209 21 -54 75 -86 251 -148 93 -34 237 -77
319 -97 83 -19 227 -54 320 -77 159 -39 178 -42 305 -41 144 1 352 21 360 34
3 5 77 11 165 14 151 6 353 33 388 52 10 6 -21 8 -79 6 l-94 -4 11 26 c11 24
14 25 29 11 13 -12 23 -13 41 -6 23 9 23 10 2 10 -31 1 -40 21 -10 21 31 0 43
27 16 35 -25 8 -24 16 7 38 26 20 102 21 117 2 4 -6 11 -4 17 5 7 12 16 7 50
-27 22 -24 52 -45 65 -48 14 -3 35 -7 48 -9 31 -7 135 17 182 41 22 12 62 44
87 71 47 50 148 196 148 213 0 18 67 9 86 -12 l19 -21 17 22 c16 19 22 21 49
11 44 -15 49 -14 49 9 0 13 -12 25 -35 34 -37 16 -43 27 -22 44 9 8 53 -1 162
-33 165 -49 163 -49 149 -36 -17 17 -304 100 -321 94 -11 -5 -14 -3 -8 6 5 10
2 11 -14 6 -11 -3 -21 -2 -21 3 0 6 -11 13 -25 16 -28 7 -30 19 -16 166 5 46
5 91 0 100 -4 8 -10 31 -13 50 -4 20 -24 66 -45 103 -45 77 -47 75 64 57 263
-41 803 -96 1364 -136 729 -53 1051 -60 1566 -34 270 13 286 15 230 26 -44 8
-52 12 -30 14 l30 2 -25 9 c-21 7 -20 8 9 4 18 -3 41 -6 50 -6 9 -1 3 -4 -14
-8 -24 -6 -14 -9 49 -15 58 -6 81 -5 90 5 8 9 8 10 -3 4 -11 -6 -13 -4 -8 8 5
13 1 17 -18 17 -16 0 -25 -6 -25 -15 0 -8 -4 -15 -9 -15 -11 0 -22 28 -13 34
4 2 83 3 177 2 93 0 160 0 150 2 -47 9 -30 18 25 14 33 -2 66 0 73 5 6 6 39
10 72 10 50 0 54 -1 25 -7 l-35 -7 35 -2 c27 -1 31 -4 20 -11 -17 -11 -1 -13
24 -4 19 7 21 31 4 37 -13 4 188 27 232 27 14 -1 39 2 55 4 17 3 95 14 175 25
80 10 181 26 225 35 44 8 157 29 250 46 637 117 1207 316 1495 524 65 47 177
153 193 181 5 11 -19 -7 -54 -39 -111 -103 -193 -158 -401 -270 -49 -26 -93
-44 -100 -40 -7 5 -8 3 -3 -6 6 -10 3 -12 -13 -8 -12 4 -20 3 -18 -1 3 -4 -19
-15 -47 -25 -29 -10 -74 -29 -100 -42 -26 -13 -51 -23 -55 -22 -22 4 -91 -16
-85 -25 3 -6 1 -7 -5 -3 -6 4 -19 3 -29 -3 -17 -8 -188 -62 -258 -81 -16 -5
-51 -11 -78 -15 -26 -3 -45 -10 -42 -15 3 -4 -4 -6 -14 -3 -11 3 -40 -3 -65
-12 -28 -11 -56 -15 -73 -11 -21 5 -24 4 -13 -4 12 -8 9 -10 -15 -11 -72 -4
-145 -16 -183 -31 -24 -9 -35 -10 -40 -1 -4 6 -19 9 -34 6 -15 -3 -26 -9 -23
-13 3 -4 -3 -11 -12 -14 -9 -4 -19 -2 -23 4 -5 8 -36 6 -106 -4 -94 -15 -206
-29 -499 -62 -222 -25 -385 -34 -525 -30 -82 3 -117 2 -90 -3 38 -7 41 -8 15
-11 -79 -7 -135 -4 -135 6 0 14 35 21 149 30 66 5 91 4 91 -5 0 -6 17 -11 43
-10 l42 0 -50 14 c-27 8 -72 15 -100 15 -44 1 -47 3 -25 11 13 6 38 9 55 8 16
-1 44 -1 60 0 26 2 27 3 10 11 -14 6 -2 9 45 11 l65 2 -65 6 -65 6 90 9 c50 5
106 10 125 12 71 5 257 24 325 33 39 5 77 10 85 10 73 4 617 93 824 136 141
29 386 89 471 115 33 10 94 28 135 41 164 48 345 121 510 204 179 90 244 133
353 234 81 75 74 87 -10 19 -94 -77 -179 -138 -193 -138 -6 0 -10 -3 -10 -7 0
-5 -24 -19 -53 -33 -28 -14 -54 -28 -57 -31 -3 -3 -22 -12 -42 -20 -21 -7 -38
-16 -38 -19 0 -4 -31 -17 -70 -30 -38 -13 -67 -27 -65 -31 3 -4 -5 -5 -17 -1
-16 4 -19 2 -13 -8 5 -9 4 -11 -4 -6 -6 4 -18 2 -26 -4 -8 -7 -15 -9 -15 -6 0
4 -6 1 -13 -6 -8 -7 -46 -22 -85 -32 -40 -10 -69 -23 -66 -28 3 -5 -6 -6 -22
-2 -20 5 -25 4 -19 -6 5 -9 2 -10 -15 -5 -17 5 -20 4 -15 -5 6 -10 1 -11 -19
-6 -14 3 -26 3 -26 -2 0 -4 -28 -14 -62 -21 -98 -19 -139 -31 -134 -39 2 -4
-19 -7 -46 -8 -28 -1 -53 -7 -57 -13 -5 -7 -31 -13 -60 -13 -28 -1 -47 -5 -40
-8 7 -5 8 -10 1 -14 -6 -3 -13 -2 -17 4 -10 16 -28 12 -21 -5 4 -12 2 -13 -15
-2 -13 8 -22 9 -27 2 -4 -5 -20 -11 -37 -12 -16 0 -84 -11 -150 -23 -66 -12
-147 -26 -180 -32 -33 -5 -85 -13 -115 -18 -30 -5 -111 -16 -180 -24 -69 -9
-156 -20 -195 -25 -94 -14 -334 -39 -365 -38 -14 0 -79 -2 -145 -6 -66 -3 -99
-2 -73 2 172 26 -98 18 -506 -16 -63 -5 -77 -3 -71 7 5 8 20 10 44 6 26 -4 32
-3 21 5 -10 6 -109 7 -281 3 l-266 -7 -16 23 c-8 12 -20 19 -26 16 -6 -4 -13
4 -17 19 -7 28 -37 34 -59 11 -10 -10 -11 -16 -2 -25 8 -8 7 -11 -6 -11 -9 0
-17 6 -17 13 0 6 -8 22 -18 35 -17 22 -18 22 -57 6 -45 -19 -55 -29 -55 -63
l0 -24 -277 7 c-347 9 -792 31 -1028 51 -294 26 -496 45 -570 55 -38 6 -126
17 -195 25 -121 14 -314 39 -375 49 -143 22 -246 39 -280 47 -38 8 -37 8 10 3
28 -2 92 -12 144 -21 79 -13 94 -14 102 -2 5 8 7 19 4 26 -2 7 1 10 8 8 14 -5
89 59 80 69 -3 3 -12 -2 -19 -12 -12 -16 -13 -16 -14 0 0 18 0 18 -185 48
-125 20 -589 111 -649 128 -16 4 -32 15 -34 23 -3 7 -1 11 3 7 12 -11 33 23
28 43 -3 10 -22 24 -42 30 l-36 12 29 12 c17 7 24 15 18 19 -7 4 -20 2 -31 -4
-27 -14 -38 -13 -17 3 15 11 13 14 -24 31 -40 17 -45 17 -92 2 -58 -18 -101
-20 -129 -6 -13 7 -19 7 -19 0 0 -5 7 -10 15 -10 7 0 18 -6 22 -14 13 -22 45
-24 93 -4 34 14 40 14 26 3 -11 -8 -25 -15 -30 -15 -6 0 -4 -5 4 -11 12 -8 10
-9 -7 -4 -12 3 -39 -2 -60 -11 -27 -12 -33 -18 -20 -21 21 -5 23 -23 2 -23 -8
0 -17 -11 -21 -25 -4 -18 -13 -25 -29 -25 -30 0 -39 14 -25 40 10 19 9 20 -13
15 -23 -6 -24 -4 -21 26 2 18 12 41 21 51 28 31 25 48 -8 48 -17 0 -28 -4 -25
-9 3 -4 -7 -8 -22 -8 -15 -1 -54 -4 -88 -8 -53 -7 -74 -3 -160 23 -103 32
-284 102 -437 168 l-89 38 -126 -23 c-70 -13 -131 -26 -135 -30 -4 -4 27 -25
70 -47 43 -21 80 -42 83 -45 3 -3 26 -14 53 -24 26 -10 47 -20 47 -22 0 -11
-121 35 -131 50 -4 5 -18 10 -32 10 -14 1 -24 4 -21 6 2 2 -16 13 -39 24 -188
87 -434 231 -501 292 -19 17 -49 42 -67 57 -41 32 -84 76 -105 103 -9 13 -7 2
6 -33 11 -29 20 -57 20 -61 0 -5 -93 -8 -207 -6 -279 3 -291 3 -273 15 10 6 5
9 -20 8 -19 -1 -51 2 -70 5 -19 4 -70 10 -113 13 -43 4 -80 10 -82 14 -8 14
31 36 70 38 22 2 129 -6 238 -17 108 -12 226 -21 261 -21 62 0 65 1 70 28 3
15 7 66 9 114 l2 88 54 0 c29 0 71 5 92 12 33 9 38 15 33 32 -4 12 -8 23 -10
24 -5 7 -153 4 -175 -3 -21 -7 -22 -5 -17 66 3 41 9 83 13 94 l7 20 -17 -20
c-9 -11 -34 -54 -56 -95 -67 -125 -51 -117 -176 -85 -59 16 -111 31 -115 34
-6 5 178 311 199 332 4 4 58 -4 119 -18 l111 -24 69 71 c38 40 92 88 119 108
59 43 68 53 55 66 -6 6 -10 33 -11 60 l-1 51 -9 -40 c-5 -22 -20 -53 -32 -69
l-24 -29 -119 25 c-89 18 -119 29 -118 40 1 10 179 302 200 327 4 4 270 -28
294 -35 9 -3 -13 -23 -60 -53 -62 -39 -80 -57 -103 -102 -16 -30 -22 -47 -15
-38 11 14 15 14 26 3 15 -17 16 -27 0 -18 -8 5 -9 0 -5 -17 4 -13 7 -27 7 -31
0 -4 23 -10 50 -14 62 -8 76 -24 21 -24 -64 0 -89 14 -94 52 -3 27 -4 25 -5
-12 -2 -45 -1 -46 31 -48 17 -2 34 -7 35 -12 7 -19 106 -11 147 11 253 135
407 199 476 199 43 0 75 -10 61 -19 -5 -3 20 -7 57 -7 36 -1 140 -18 231 -38
91 -20 217 -48 280 -62 63 -14 120 -30 126 -35 6 -5 13 -7 16 -4 2 3 47 -6 99
-19 272 -71 371 -80 554 -55 262 36 287 40 450 85 170 46 225 67 225 86 0 13
-8 18 -29 18 -16 0 -32 -6 -34 -12 -3 -7 -6 -3 -6 9 -2 60 -127 89 -441 103
-221 10 -272 17 -367 46 -10 3 -7 -2 7 -10 32 -19 26 -19 -101 0 -116 17 -212
35 -339 64 -47 11 -98 23 -115 26 -26 6 -22 9 40 21 111 22 462 81 553 93 88
12 112 18 112 29 0 10 -253 -14 -277 -27 -27 -15 -55 -16 -33 -2 19 12 8 13
-24 0 -14 -5 -47 -11 -73 -14 -26 -3 -57 -7 -68 -10 -11 -3 -37 -8 -58 -11
-21 -3 -35 -10 -32 -15 3 -5 -7 -9 -22 -9 -39 0 -96 -12 -110 -23 -7 -6 -24
-7 -38 -4 -14 4 -25 2 -25 -3 0 -5 -20 -5 -47 1 -194 37 -367 61 -450 62 -28
0 -46 4 -40 8 7 4 -9 8 -35 8 -26 0 -50 5 -53 10 -3 6 -12 10 -18 10 -7 0 -6
-4 3 -11 12 -8 10 -9 -10 -5 -14 3 -31 6 -38 6 -7 0 -10 4 -7 10 3 6 -1 7 -9
4 -9 -3 -14 -9 -11 -13 2 -4 -9 -6 -24 -3 -16 2 -31 0 -35 -6 -3 -5 20 -12 54
-16 38 -4 67 -14 78 -25 9 -10 24 -21 32 -23 11 -4 7 -9 -13 -19 -25 -11 -30
-11 -38 4 -11 20 -49 23 -49 5 0 -9 -3 -9 -9 1 -5 8 -18 12 -29 8 -12 -2 -23
0 -26 7 -2 6 -5 1 -5 -10 -1 -25 -32 -40 -104 -50 -26 -3 -50 -10 -53 -15 -3
-5 -16 -9 -30 -9 -13 0 -33 -5 -44 -12 -42 -27 -28 8 66 156 105 166 171 273
212 346 64 114 68 118 126 130 31 6 58 15 61 21 6 9 -41 3 -89 -12 -45 -14
-49 -11 -22 15 15 13 26 27 26 32 1 17 62 77 69 67 9 -13 152 -9 180 6 12 7
32 11 42 8 10 -3 21 -1 24 3 3 4 15 6 27 2 16 -4 19 -2 13 8 -6 10 -1 12 24 7
18 -4 30 -3 26 2 -8 14 88 10 105 -4 33 -26 151 -85 250 -125 157 -63 242 -87
377 -105 117 -16 124 -16 163 2 50 23 51 37 3 29 -25 -4 -33 -3 -24 3 10 7 6
10 -16 15 -69 15 -158 120 -189 221 -10 33 -24 67 -31 76 -7 8 -13 24 -12 35
0 18 1 18 9 -1 7 -16 9 -17 9 -3 1 9 -6 23 -14 31 -15 16 -18 84 -3 93 4 3 6
9 3 14 -8 13 -35 0 -35 -16 0 -10 -14 -14 -52 -13 -43 1 -47 3 -23 8 26 6 22
8 -30 14 -56 7 -239 42 -277 53 -22 6 -24 24 -3 24 8 0 15 3 15 8 0 4 20 21
45 37 24 17 45 35 45 42 0 6 8 14 18 16 15 4 15 5 0 6 -22 1 -140 -89 -153
-117 -5 -12 -17 -22 -25 -22 -12 0 -12 2 -2 9 9 5 -1 12 -32 21 l-46 13 5 41
c4 35 3 37 -4 10 -14 -54 -41 -76 -41 -33 0 11 -4 18 -9 15 -5 -4 -12 8 -16
25 -5 23 -9 28 -16 18 -7 -11 -9 -11 -9 -1 0 8 -11 26 -24 40 -13 15 -48 53
-78 86 -60 66 -60 67 -50 83 10 15 106 20 124 6 7 -6 28 -11 45 -11 42 -1 55
-9 49 -30 -9 -27 6 -37 54 -37 25 -1 99 -14 165 -29 66 -16 136 -32 155 -36
l35 -8 -41 -1 c-24 0 -47 -8 -54 -16 -15 -18 -7 -19 21 -4 14 7 42 7 97 -2 42
-7 71 -14 65 -16 -8 -3 -7 -10 4 -23 19 -21 38 -16 28 7 -4 13 1 15 32 10 21
-3 46 -8 56 -12 13 -6 16 -3 11 9 -3 9 -15 16 -25 16 -10 0 -19 5 -19 11 0 6
11 8 28 5 34 -7 35 -6 135 90 100 97 146 135 215 181 l53 36 -38 18 c-92 43
-130 59 -141 59 -7 0 -12 5 -12 10 0 6 -11 10 -24 10 -14 0 -28 5 -31 10 -4 6
-12 10 -18 9 -7 -1 -25 3 -41 10 -16 6 -47 13 -69 16 -22 2 -43 9 -47 15 -4 7
-9 8 -11 3 -2 -6 -32 -6 -74 -1 -38 4 -77 8 -85 9 -8 1 -33 5 -55 9 -112 24
-617 46 -684 31 -25 -5 -43 -5 -47 0 -8 13 -135 -1 -154 -16 -8 -7 -21 -10
-27 -8 -8 3 -13 -4 -13 -17 0 -12 -7 -28 -15 -36 -19 -20 -19 -38 0 -31 8 4
17 2 20 -2 5 -10 -18 -33 -31 -30 -21 3 -28 -2 -14 -11 13 -8 12 -10 -2 -10
-13 0 -18 -8 -18 -30 0 -16 5 -30 11 -30 6 0 9 -7 5 -15 -4 -11 1 -15 19 -15
28 0 33 -15 9 -24 -27 -10 -84 -7 -219 14 -318 50 -489 81 -501 91 -6 5 -24
11 -40 14 -16 2 -51 9 -79 15 -27 6 -106 19 -175 29 -69 10 -125 20 -125 21 0
2 -11 4 -25 6 -63 8 -231 37 -290 50 -36 8 -85 16 -110 18 -25 3 -67 10 -94
16 -27 6 -70 13 -95 17 -81 10 -86 10 -86 12 0 1 -11 4 -25 6 -50 7 -246 37
-275 42 -16 3 -40 6 -52 7 -11 0 -19 4 -16 9 2 4 -11 7 -29 7 -18 0 -53 5 -78
11 -25 6 -56 12 -70 13 -52 6 -111 19 -115 26 -3 5 -13 6 -23 3 -25 -6 -112
45 -122 73 -5 13 -14 24 -19 24 -5 0 -7 10 -4 23 4 18 3 19 -6 7 -9 -13 -11
-12 -11 3 0 27 18 57 57 99 38 39 37 58 -2 58 -13 0 -34 4 -47 9 -14 5 -56 12
-94 15 -38 4 -94 11 -124 16 -30 5 -75 12 -100 15 -25 3 -63 7 -85 10 -22 3
-76 8 -120 10 -44 3 -109 10 -145 15 -118 16 -442 39 -648 44 -112 3 -207 8
-211 10 -4 3 -38 -26 -76 -64z m385 -132 c38 -7 70 -15 70 -19 0 -6 -52 2
-135 20 -61 13 -15 13 65 -1z m253 -42 c65 -13 130 -24 242 -42 22 -4 34 -9
26 -12 -8 -2 -46 1 -85 7 -39 6 -100 17 -136 22 -36 6 -90 17 -120 24 -77 18
-19 19 73 1z m-337 -63 c-7 -7 -26 7 -26 19 0 6 6 6 15 -2 9 -7 13 -15 11 -17z
m142 6 c-2 -3 3 -13 11 -22 12 -15 11 -17 -5 -17 -11 0 -25 4 -33 9 -12 8 -12
11 0 25 13 14 35 18 27 5z m509 -5 c-3 -3 -12 -4 -19 -1 -8 3 -5 6 6 6 11 1
17 -2 13 -5z m-557 -14 c0 -5 -7 -10 -15 -10 -8 0 -15 5 -15 10 0 6 7 10 15
10 8 0 15 -4 15 -10z m637 4 c-3 -3 -12 -4 -19 -1 -8 3 -5 6 6 6 11 1 17 -2
13 -5z m-404 -11 c-7 -2 -19 -2 -25 0 -7 3 -2 5 12 5 14 0 19 -2 13 -5z m570
-15 c42 -7 77 -15 77 -18 0 -8 -162 17 -205 30 -27 9 -27 10 10 5 22 -3 75
-10 118 -17z m-886 6 c-3 -3 -12 -4 -19 -1 -8 3 -5 6 6 6 11 1 17 -2 13 -5z
m406 -8 c8 -20 -2 -26 -42 -25 l-36 2 35 6 c24 4 31 9 22 14 -7 5 -20 6 -28 3
-9 -3 -12 -1 -9 4 9 15 52 12 58 -4z m-95 -13 c-10 -2 -28 -2 -40 0 -13 2 -5
4 17 4 22 1 32 -1 23 -4z m-190 -30 c-10 -2 -26 -2 -35 0 -10 3 -2 5 17 5 19
0 27 -2 18 -5z m607 -13 c-3 -5 -12 -10 -20 -10 -8 0 -17 5 -20 10 -4 6 5 10
20 10 15 0 24 -4 20 -10z m68 -7 c-7 -2 -19 -2 -25 0 -7 3 -2 5 12 5 14 0 19
-2 13 -5z m671 -78 c8 -9 47 -20 88 -25 l73 -9 -85 5 c-47 3 -95 7 -108 11
-21 5 -22 6 -5 19 22 17 19 17 37 -1z m41 5 c3 -5 1 -10 -4 -10 -6 0 -11 5
-11 10 0 6 2 10 4 10 3 0 8 -4 11 -10z m-148 -16 c-3 -3 -12 -4 -19 -1 -8 3
-5 6 6 6 11 1 17 -2 13 -5z m-5532 -144 c3 -5 -10 -8 -30 -7 -19 1 -36 7 -39
12 -4 13 62 7 69 -5z m73 -7 c-10 -2 -28 -2 -40 0 -13 2 -5 4 17 4 22 1 32 -1
23 -4z m8092 -123 c0 -5 -4 -10 -9 -10 -6 0 -13 5 -16 10 -3 6 1 10 9 10 9 0
16 -4 16 -10z m-8296 -104 c85 -21 257 -61 348 -82 42 -9 75 -21 73 -24 -3 -4
-22 -4 -42 1 -182 40 -466 109 -472 115 -9 8 35 4 93 -10z m8319 -3 c-7 -2
-21 -2 -30 0 -10 3 -4 5 12 5 17 0 24 -2 18 -5z m682 -79 c16 -4 23 -13 23
-30 0 -13 -2 -24 -4 -24 -2 0 -25 5 -52 11 -44 9 -49 13 -44 32 5 20 6 20 13
1 7 -17 8 -17 8 5 1 17 5 22 17 17 9 -3 26 -9 39 -12z m-100 -23 c-3 -12 -13
-21 -21 -21 -12 0 -12 4 2 25 19 29 29 27 19 -4z m-8910 9 c-3 -5 -12 -10 -18
-10 -7 0 -6 4 3 10 19 12 23 12 15 0z m9105 -30 c-12 -8 -11 -10 7 -10 12 0
25 5 28 10 3 6 13 10 21 10 8 0 14 -4 14 -10 0 -5 -8 -10 -17 -10 -15 0 -16
-2 -3 -10 24 -15 7 -19 -40 -9 -70 15 -79 21 -45 29 44 11 52 11 35 0z m-8880
-14 c0 -2 -9 -6 -20 -9 -11 -3 -18 -1 -14 4 5 9 34 13 34 5z m547 -42 c34 -9
63 -20 63 -25 0 -11 -16 -11 -60 0 -19 5 -52 12 -72 15 -28 5 -36 11 -31 22 3
9 12 13 21 9 8 -3 44 -13 79 -21z m-517 6 c0 -13 -11 -13 -30 0 -12 8 -11 10
8 10 12 0 22 -4 22 -10z m-85 -10 c-17 -7 -16 -9 9 -9 16 -1 27 -4 23 -7 -3
-3 -25 -3 -49 2 -39 7 -40 8 -18 15 35 10 60 10 35 -1z m-170 -11 c11 -16 1
-19 -13 -3 -7 8 -8 14 -3 14 5 0 13 -5 16 -11z m9505 2 c0 -17 -18 -21 -24 -6
-3 9 0 15 9 15 8 0 15 -4 15 -9z m-9080 -48 c0 -16 -6 -23 -20 -23 -25 0 -70
21 -70 32 0 5 -10 6 -21 3 -15 -5 -19 -4 -15 4 4 6 19 11 34 11 15 0 33 4 41
9 20 13 51 -9 51 -36z m545 26 c10 -14 1 -21 -19 -13 -9 3 -13 10 -10 15 7 12
21 11 29 -2z m-830 -9 c4 -6 10 -8 15 -5 5 3 36 -1 69 -10 32 -8 71 -15 85
-15 23 0 26 -4 26 -34 0 -40 -12 -52 -30 -31 -7 9 -21 13 -31 10 -9 -3 -20 -2
-23 4 -3 5 -29 15 -58 21 -48 12 -50 14 -32 28 19 14 19 15 -1 8 -35 -13 -39
-12 -43 12 -3 22 12 30 23 12z m9162 4 c-3 -3 -12 -4 -19 -1 -8 3 -5 6 6 6 11
1 17 -2 13 -5z m-8657 -14 c8 -5 12 -12 9 -15 -8 -8 -39 5 -39 16 0 11 11 11
30 -1z m7765 -20 c3 -5 1 -10 -4 -10 -6 0 -11 5 -11 10 0 6 2 10 4 10 3 0 8
-4 11 -10z m-7775 -11 c0 -7 12 -8 33 -4 l32 6 -25 -16 c-24 -15 -24 -15 20
-9 25 3 54 5 65 5 11 0 34 -1 51 -1 21 0 34 -5 38 -17 13 -34 30 -62 41 -66
27 -10 -164 27 -225 44 -47 12 -68 19 -110 37 -25 10 -25 11 8 11 17 1 32 6
32 11 0 6 9 10 20 10 11 0 20 -5 20 -11z m107 5 c-3 -3 -12 -4 -19 -1 -8 3 -5
6 6 6 11 1 17 -2 13 -5z m-363 -26 c4 -17 8 -20 14 -10 6 8 9 2 9 -18 l0 -31
-23 28 c-24 29 -31 53 -15 53 5 0 11 -10 15 -22z m651 -40 c11 -6 23 -17 28
-24 10 -17 37 -7 30 12 -3 8 0 14 6 14 6 0 11 -4 11 -10 0 -5 7 -10 15 -10 9
0 15 -7 13 -17 -3 -14 14 -20 97 -35 55 -9 120 -20 145 -23 40 -4 38 -3 -15
10 -33 9 -73 18 -90 21 -48 8 -105 27 -105 34 0 4 12 5 28 3 22 -4 24 -2 12 7
-13 10 -12 11 3 6 10 -3 31 -6 45 -7 25 0 25 -1 7 -10 -14 -7 -4 -8 34 -4 55
5 55 4 322 -80 26 -8 55 -15 65 -16 14 -1 13 -3 -6 -9 -20 -6 -16 -8 23 -9 29
-1 46 -5 42 -11 -4 -6 6 -7 26 -3 24 4 30 3 25 -6 -6 -9 2 -11 31 -6 29 5 35
4 23 -5 -12 -8 -6 -9 23 -4 21 3 43 2 50 -4 6 -6 41 -16 77 -22 94 -17 165
-36 154 -42 -5 -3 -2 -3 6 -1 20 5 323 -69 311 -77 -6 -3 15 -6 46 -6 36 0 58
-4 61 -12 2 -7 15 -12 28 -12 13 0 24 -4 24 -10 0 -5 7 -7 14 -4 8 3 39 -1 70
-10 30 -9 69 -16 88 -16 25 0 29 -3 18 -10 -11 -7 -6 -8 17 -4 20 4 43 0 64
-10 18 -9 39 -16 48 -16 9 0 42 -7 73 -15 31 -8 67 -16 80 -19 12 -2 89 -20
170 -40 81 -20 157 -36 170 -36 18 0 20 -2 8 -10 -10 -6 -4 -8 21 -4 25 4 49
0 79 -15 24 -12 51 -21 59 -21 9 0 61 -12 116 -26 55 -14 105 -26 110 -27 6
-2 15 -5 20 -9 6 -3 21 -6 35 -6 35 0 179 -38 218 -57 17 -9 32 -23 32 -30 0
-8 9 -29 20 -49 14 -22 17 -37 10 -41 -5 -3 -10 1 -10 10 0 19 -49 64 -70 65
-8 0 -33 6 -55 14 -22 7 -58 16 -80 19 l-40 6 39 -19 c21 -11 41 -19 45 -18
13 4 80 -24 91 -38 7 -7 21 -14 31 -14 15 0 19 -7 19 -32 0 -30 0 -31 -20 -13
-16 14 -20 15 -24 4 -13 -40 -14 -42 -15 -16 l-1 27 -36 -15 c-32 -13 -37 -13
-52 1 -10 10 -25 14 -44 10 -27 -5 -28 -4 -29 32 -2 30 -3 32 -6 10 -4 -27
-26 -41 -22 -15 3 21 -2 83 -6 72 -2 -5 -6 -36 -10 -67 -7 -60 -24 -80 -26
-30 -1 16 -3 20 -6 10 -5 -20 -8 -21 -52 -12 -17 4 -31 13 -31 20 0 8 -5 14
-11 14 -6 0 -17 6 -25 14 -14 15 -54 11 -54 -5 0 -5 -8 -9 -18 -9 -13 0 -22
12 -31 40 -10 33 -15 39 -29 32 -9 -5 -30 -12 -46 -16 -27 -7 -28 -6 -22 21 5
20 4 24 -3 13 -9 -12 -11 -12 -17 3 -8 22 -40 22 -48 0 -5 -13 -12 -10 -36 17
-17 19 -30 37 -30 42 0 4 -6 8 -14 8 -8 0 -16 6 -19 13 -3 9 -7 9 -18 1 -25
-20 -57 -22 -80 -6 -16 11 -24 12 -27 4 -2 -7 -10 -12 -17 -12 -7 0 -15 -6
-18 -12 -3 -10 -9 -10 -23 -2 -26 15 -24 39 4 38 12 0 22 3 22 7 0 8 -36 19
-62 19 -10 0 -20 -10 -24 -25 -6 -25 -24 -35 -24 -13 0 9 -3 9 -12 -1 -11 -10
-15 -3 -25 36 -6 26 -12 38 -12 26 -1 -30 -24 -29 -79 2 -29 16 -58 24 -85 24
-61 -2 -60 -2 -96 33 -31 30 -35 31 -112 31 -66 -1 -83 -4 -95 -19 -13 -18
-15 -18 -28 -1 -8 10 -27 17 -49 17 -20 0 -39 5 -42 10 -4 6 -16 10 -28 8 -34
-3 -107 14 -107 25 0 5 -7 4 -15 -3 -12 -10 -18 -10 -30 0 -8 6 -18 9 -23 6
-5 -3 -22 8 -37 24 -20 21 -38 30 -61 30 -18 0 -43 4 -56 9 -56 22 -139 34
-150 23 -15 -15 -28 -15 -28 -2 0 6 7 10 15 10 8 0 15 5 15 10 0 6 -25 10 -55
10 -30 0 -55 -4 -55 -10 0 -5 -7 -7 -15 -4 -8 4 -13 9 -10 13 6 10 -54 38 -99
46 -20 4 -36 11 -36 15 0 5 -18 6 -40 3 -30 -4 -40 -2 -40 8 -1 8 -7 3 -15
-11 l-13 -25 -7 28 c-9 36 -34 37 -27 1 4 -21 2 -25 -9 -18 -8 5 -39 10 -69
10 -74 2 -126 14 -109 25 10 6 8 9 -8 9 -13 0 -23 5 -23 10 0 6 9 10 20 10 11
0 20 5 20 10 0 14 -15 13 -56 -5 -31 -13 -35 -13 -39 0 -3 8 -7 22 -10 30 -5
17 -31 20 -40 5 -10 -17 -34 -11 -46 11 -11 21 -10 21 47 14 32 -4 80 -16 107
-26 26 -10 60 -19 75 -19 15 0 63 -9 107 -20 92 -23 95 -23 95 -11 0 8 -107
35 -245 61 -86 17 -160 37 -184 49 -11 6 -30 11 -42 11 -12 0 -61 12 -110 27
-62 19 -89 32 -92 45 -3 10 -12 18 -21 18 -9 0 -16 5 -16 10 0 6 5 10 11 10 6
0 8 7 5 16 -6 14 1 15 51 9 32 -4 67 -12 78 -17z m-388 -14 c-3 -3 -12 -4 -19
-1 -8 3 -5 6 6 6 11 1 17 -2 13 -5z m680 0 c-3 -3 -12 -4 -19 -1 -8 3 -5 6 6
6 11 1 17 -2 13 -5z m7610 -41 c-7 -6 -67 9 -67 17 0 5 16 3 35 -3 19 -6 33
-12 32 -14z m-8098 -9 c2 -2 1 -7 -2 -10 -4 -4 -21 1 -39 10 l-33 17 35 -7
c19 -3 37 -8 39 -10z m81 -39 c-7 -9 -15 -13 -17 -11 -7 7 7 26 19 26 6 0 6
-6 -2 -15z m8227 -1 c-3 -3 -12 -4 -19 -1 -8 3 -5 6 6 6 11 1 17 -2 13 -5z
m126 -21 c-7 -2 -19 -2 -25 0 -7 3 -2 5 12 5 14 0 19 -2 13 -5z m-8138 -23 c3
-5 -3 -10 -14 -10 -12 0 -21 5 -21 10 0 6 6 10 14 10 8 0 18 -4 21 -10z m2762
-216 c-3 -3 -12 -4 -19 -1 -8 3 -5 6 6 6 11 1 17 -2 13 -5z m0 -120 c-3 -3
-12 -4 -19 -1 -8 3 -5 6 6 6 11 1 17 -2 13 -5z m43 -36 c0 -13 -23 -5 -28 10
-2 7 2 10 12 6 9 -3 16 -11 16 -16z m75 -48 c3 -5 1 -10 -4 -10 -6 0 -11 5
-11 10 0 6 2 10 4 10 3 0 8 -4 11 -10z m51 -25 c13 -13 13 -15 1 -15 -8 0 -17
7 -21 15 -3 8 -3 15 0 15 3 0 12 -7 20 -15z m4062 -35 c57 -7 102 -16 100 -20
-2 -4 -55 -87 -118 -184 l-115 -177 -45 5 c-146 19 -200 29 -200 40 0 6 35 69
78 140 86 145 150 221 179 213 10 -3 64 -11 121 -17z m-3448 -30 c-13 -8 -12
-13 8 -32 19 -20 24 -21 32 -8 8 13 10 13 10 -2 0 -9 -8 -25 -17 -34 -14 -14
-14 -16 -3 -12 12 4 15 -4 15 -42 l0 -47 -65 18 c-36 10 -87 27 -114 38 -26
12 -54 21 -62 21 -8 0 -14 9 -14 19 0 25 16 36 23 17 3 -8 1 -17 -6 -20 -7 -2
-4 -5 6 -5 10 -1 22 10 27 24 9 23 21 30 44 26 18 -4 75 21 80 34 3 8 16 15
28 15 18 0 20 -2 8 -10z m-360 -10 c0 -15 77 -12 83 3 3 6 3 -8 1 -33 -2 -25
-1 -37 2 -27 3 9 9 17 12 17 9 0 32 -51 27 -60 -2 -3 19 -12 48 -19 29 -7 90
-26 137 -41 47 -16 111 -36 143 -46 69 -20 69 -26 0 -15 -54 8 -48 11 -135
-63 -21 -17 -50 -40 -64 -51 -14 -11 -38 -33 -53 -48 -25 -26 -30 -28 -62 -18
l-34 11 35 -4 35 -5 -44 20 c-43 19 -70 18 -41 -2 12 -8 11 -9 -5 -7 -22 4
-22 4 -5 118 6 41 8 96 4 123 -4 31 -2 47 5 47 6 0 11 5 11 10 0 6 -6 10 -14
10 -9 0 -16 -21 -23 -62 -8 -51 -11 -59 -19 -43 -10 23 -74 31 -86 11 -5 -7
-14 -3 -28 11 -11 12 -20 25 -20 29 0 4 -11 22 -25 40 -14 18 -25 37 -25 43 0
6 -4 11 -9 11 -5 0 -11 6 -14 14 -7 18 31 15 44 -4 8 -13 11 -13 22 0 6 9 19
14 29 12 9 -2 22 4 30 12 15 17 38 21 38 6z m127 -62 c-3 -7 -5 -2 -5 12 0 14
2 19 5 13 2 -7 2 -19 0 -25z m313 22 c0 -5 -4 -10 -10 -10 -5 0 -10 5 -10 10
0 6 5 10 10 10 6 0 10 -4 10 -10z m-417 -143 c4 3 6 -20 6 -53 -1 -32 -4 -50
-6 -40 -4 15 -7 16 -15 5 -7 -10 -8 -7 -5 13 3 20 -2 29 -20 39 -26 14 -30 29
-8 29 8 0 15 5 15 11 0 8 4 9 13 0 8 -6 17 -8 20 -4z m52 -45 c-6 -31 -9 -34
-15 -17 -6 14 -9 1 -9 -39 -1 -33 -4 -56 -8 -52 -8 7 -5 79 4 110 4 15 7 16
14 5 6 -10 9 -3 10 21 0 19 3 29 6 22 3 -7 2 -30 -2 -50z m566 7 c-5 -13 -10
-19 -10 -12 -1 15 10 45 15 40 3 -2 0 -15 -5 -28z m-48 -16 c-7 -2 -21 -2 -30
0 -10 3 -4 5 12 5 17 0 24 -2 18 -5z m4680 -110 c-7 -2 -21 -2 -30 0 -10 3 -4
5 12 5 17 0 24 -2 18 -5z m-1088 -64 c5 -5 32 -9 61 -9 37 0 54 -4 58 -15 4
-13 -9 -15 -84 -15 -71 0 -90 3 -90 14 0 8 8 17 18 19 9 3 -3 5 -28 6 -31 1
-41 4 -31 10 16 10 81 3 96 -10z m410 -65 c64 -6 79 -10 83 -23 2 -7 8 -8 15
-3 7 5 48 0 102 -13 77 -19 90 -25 87 -41 -5 -26 -7 -27 -31 -15 -11 6 -42 13
-70 16 -67 6 -74 8 -86 21 -5 6 -37 17 -70 24 -32 7 -70 17 -82 23 -27 12 -32
33 -5 22 9 -4 35 -9 57 -11z m-4082 -31 c-7 -2 -19 -2 -25 0 -7 3 -2 5 12 5
14 0 19 -2 13 -5z m3227 -8 c0 -2 -11 -10 -25 -17 -24 -13 -23 -13 18 -14 30
-1 36 1 22 7 -15 6 -9 8 22 8 23 1 45 -3 48 -9 3 -5 13 -10 21 -10 9 0 22 -7
30 -15 17 -16 59 -21 49 -6 -3 5 -1 12 5 16 5 3 10 -3 10 -14 0 -12 4 -21 9
-21 5 0 17 -3 27 -7 9 -3 15 -2 12 3 -3 5 -2 18 3 29 6 17 8 16 9 -10 l1 -30
11 25 c6 15 12 20 15 13 3 -7 12 -13 21 -13 15 0 15 2 2 10 -12 8 -10 10 8 10
13 0 21 -4 18 -9 -4 -5 3 -7 14 -4 11 3 20 0 20 -6 0 -6 -16 -11 -36 -11 -21
0 -33 -4 -29 -10 3 -5 -3 -10 -14 -10 -11 0 -37 -9 -56 -20 -20 -11 -40 -18
-46 -15 -5 4 -9 2 -9 -3 0 -6 -11 -13 -25 -16 -14 -4 -25 -11 -25 -17 0 -6 -4
-8 -9 -5 -12 8 -106 -39 -188 -95 -40 -27 -83 -49 -95 -49 -23 1 -23 1 2 15
14 7 25 19 26 27 3 41 4 42 20 22 8 -10 12 -13 8 -5 -3 7 0 17 7 22 19 12 32
11 24 -1 -3 -6 1 -7 10 -3 12 4 13 8 5 13 -7 4 -9 13 -5 20 4 7 -5 4 -19 -5
-21 -14 -30 -15 -39 -6 -9 10 -8 11 4 6 10 -4 20 -2 24 4 4 7 -2 10 -15 8 -12
-2 -25 -8 -28 -14 -6 -10 -61 -17 -98 -14 -20 2 -25 33 -8 46 11 8 15 20 11
34 -5 20 2 25 29 22 6 -1 17 6 24 14 7 8 26 15 42 15 22 0 28 4 26 17 -2 11 5
19 16 21 11 2 33 17 49 33 26 26 47 37 47 24z m1184 -27 c-5 -7 -2 -9 8 -5 9
3 35 1 59 -5 24 -5 55 -12 68 -14 14 -3 28 -7 32 -10 11 -6 -2 -44 -15 -44
-11 0 -112 16 -150 23 -27 5 -40 33 -24 52 16 17 32 20 22 3z m-944 -23 c0 -8
-7 -15 -15 -15 -8 0 -15 7 -15 15 0 8 7 15 15 15 8 0 15 -7 15 -15z m1325 -35
c61 -5 205 -12 320 -15 214 -6 382 -21 391 -36 3 -5 -8 -7 -23 -4 -15 2 -46 7
-68 11 -39 6 -251 8 -450 4 l-100 -2 73 -13 c41 -7 76 -16 79 -19 17 -17 -46
-18 -157 -2 -258 36 -260 37 -260 61 0 31 10 38 50 30 19 -3 85 -10 145 -15z
m-905 0 c0 -13 -11 -13 -30 0 -12 8 -11 10 8 10 12 0 22 -4 22 -10z m-3713
-72 c-3 -8 -6 -5 -6 6 -1 11 2 17 5 13 3 -3 4 -12 1 -19z m2793 -18 c-31 -24
-43 -25 -38 -2 2 9 10 16 16 14 7 -1 15 5 19 14 4 11 9 12 17 4 8 -8 4 -16
-14 -30z m1939 -36 c22 -4 30 -9 24 -15 -11 -11 -148 7 -173 22 -15 9 72 5
149 -7z m-190 -40 c2 -2 2 -7 -2 -10 -8 -8 -107 6 -107 15 0 8 101 2 109 -5z
m94 -11 c-7 -2 -21 -2 -30 0 -10 3 -4 5 12 5 17 0 24 -2 18 -5z m422 -5 c-27
-16 -265 -24 -265 -10 0 10 37 13 230 20 46 1 52 0 35 -10z m-295 -8 c0 -11
-21 -11 -65 0 -27 7 -25 8 18 9 26 0 47 -3 47 -9z m-4616 -169 c-3 -3 -15 6
-27 18 l-22 24 27 -19 c14 -10 24 -21 22 -23z m42 -27 c18 -14 18 -14 -6 -3
-31 14 -36 19 -24 19 6 0 19 -7 30 -16z m711 -660 c-3 -3 -12 -4 -19 -1 -8 3
-5 6 6 6 11 1 17 -2 13 -5z m80 -10 c-3 -3 -12 -4 -19 -1 -8 3 -5 6 6 6 11 1
17 -2 13 -5z m680 0 c-3 -3 -12 -4 -19 -1 -8 3 -5 6 6 6 11 1 17 -2 13 -5z
m-957 -80 c0 -2 -9 -4 -20 -4 -11 0 -20 4 -20 9 0 5 9 7 20 4 11 -3 20 -7 20
-9z m80 -15 c19 -6 14 -7 -19 -4 -24 3 -46 7 -49 10 -8 8 40 4 68 -6z m1100
-8 c262 -31 407 -40 517 -34 56 3 110 2 120 -2 37 -17 -102 -22 -292 -12 -104
6 -211 11 -237 12 -25 0 -44 3 -42 6 2 3 -49 12 -114 19 -64 7 -126 16 -137
21 l-20 8 20 0 c11 1 94 -8 185 -18z m-1027 -8 c-7 -2 -21 -2 -30 0 -10 3 -4
5 12 5 17 0 24 -2 18 -5z m964 -19 c-3 -3 -12 -4 -19 -1 -8 3 -5 6 6 6 11 1
17 -2 13 -5z m718 -53 c3 -11 16 -21 27 -23 12 -2 23 -8 25 -15 6 -16 -219 -6
-229 10 -4 7 0 15 10 19 12 4 6 7 -18 9 -29 2 28 9 152 17 19 1 29 -4 33 -17z
m-186 -137 c12 -11 -9 -10 -44 2 l-40 13 40 -6 c22 -3 42 -7 44 -9z m386 5 c4
-6 5 -12 2 -15 -7 -7 -37 7 -37 17 0 13 27 11 35 -2z m-328 -5 c-3 -3 -12 -4
-19 -1 -8 3 -5 6 6 6 11 1 17 -2 13 -5z m182 -18 c-2 -2 -26 -6 -53 -9 -30 -3
-43 -1 -35 4 13 8 97 13 88 5z m181 -17 c0 -6 -4 -7 -10 -4 -5 3 -10 11 -10
16 0 6 5 7 10 4 6 -3 10 -11 10 -16z m-107 -6 c-7 -2 -19 -2 -25 0 -7 3 -2 5
12 5 14 0 19 -2 13 -5z m152 -22 c3 -5 1 -12 -4 -15 -5 -3 -11 1 -15 9 -6 16
9 21 19 6z m605 -61 c0 -5 -4 -10 -10 -10 -5 0 -10 5 -10 10 0 6 5 10 10 10 6
0 10 -4 10 -10z m-1950 -45 c0 -8 8 -15 17 -15 13 0 14 -3 5 -12 -9 -9 -16 -7
-31 9 -11 11 -17 24 -14 27 11 11 23 6 23 -9z m2110 -2 c-1 -14 -30 -47 -36
-41 -8 8 14 48 26 48 6 0 10 -3 10 -7z m-1948 -25 c-2 -10 -8 -18 -13 -18 -5
0 -9 -7 -9 -16 0 -11 -6 -14 -20 -9 -11 3 -20 2 -20 -3 0 -5 9 -12 20 -15 20
-5 60 22 60 42 0 6 11 11 25 11 14 0 25 -6 25 -12 0 -10 3 -9 9 1 7 11 10 11
18 -3 7 -13 15 -14 40 -7 26 7 31 7 26 -5 -3 -8 -10 -14 -16 -14 -6 0 -7 -3
-4 -6 4 -4 13 -1 22 6 12 10 15 10 15 -1 0 -12 2 -12 9 0 12 18 33 4 26 -18
-3 -11 3 -25 15 -36 11 -10 20 -13 20 -7 0 6 -8 15 -17 21 -15 8 -16 12 -5 22
10 11 12 11 12 0 0 -7 5 -9 13 -4 13 8 37 13 37 8 0 -2 -7 -10 -15 -18 -13
-13 -12 -17 2 -29 15 -11 16 -11 10 4 -3 10 1 22 10 30 15 11 16 11 9 -7 -6
-16 -5 -18 5 -7 15 14 39 16 39 3 0 -5 -7 -16 -15 -25 -18 -18 -19 -27 -2 -22
6 3 25 7 41 11 l29 6 -17 -25 c-16 -25 -16 -26 20 -41 20 -8 42 -15 48 -15 6
0 53 -11 104 -24 92 -23 93 -23 107 -3 8 11 20 17 29 14 8 -3 18 -2 21 3 4 6
-1 10 -9 10 -9 0 -16 5 -16 10 0 14 16 12 29 -4 11 -13 -1 -67 -21 -93 -10
-13 -3 -33 12 -33 4 0 6 10 3 23 -4 18 -3 19 7 7 9 -12 11 -9 6 15 -3 17 -3
24 0 18 8 -18 24 -16 40 5 11 14 15 14 22 4 7 -11 10 -10 16 3 3 9 4 21 0 26
-3 5 0 9 6 9 6 0 15 -10 19 -22 8 -20 10 -21 16 -5 4 9 13 17 20 17 18 0 39
27 25 32 -7 2 -1 12 12 23 13 11 17 13 11 5 -25 -27 -13 -34 12 -7 14 15 27
27 29 27 1 0 13 -12 25 -26 l22 -26 -22 7 c-14 5 -19 4 -15 -4 4 -6 4 -11 -1
-12 -4 0 -16 -2 -25 -4 -10 -2 -18 1 -18 7 0 6 -7 5 -16 -2 -13 -12 -10 -16
27 -33 48 -22 189 -36 189 -19 0 6 -12 13 -27 15 l-28 4 27 2 c15 0 33 -6 42
-14 8 -8 29 -18 46 -21 28 -6 47 -20 38 -29 -2 -2 -28 2 -58 10 -30 8 -60 11
-68 6 -20 -11 -1 -22 51 -28 23 -2 46 -8 50 -12 5 -5 -3 -31 -17 -59 -14 -28
-22 -53 -17 -56 5 -3 14 7 21 24 7 16 28 46 48 66 33 34 38 36 66 26 17 -5 48
-13 68 -16 l38 -7 -34 -67 c-19 -37 -42 -91 -52 -119 -10 -29 -22 -53 -25 -53
-4 0 -6 -11 -5 -25 2 -14 -1 -22 -7 -18 -6 4 -8 -5 -4 -23 3 -16 3 -22 0 -14
-7 16 -38 -88 -48 -162 -4 -27 -11 -48 -17 -48 -5 0 -6 5 -2 12 4 6 3 8 -3 5
-6 -4 -24 0 -39 8 -16 8 -44 18 -62 21 -18 4 -39 15 -46 26 -8 11 -15 15 -17
10 -5 -12 -72 4 -134 32 -22 9 -59 22 -82 29 -24 6 -43 15 -43 19 0 4 -13 8
-30 8 -17 0 -30 5 -31 13 0 10 -2 10 -6 0 -11 -29 -23 -10 -24 40 -2 48 -2 49
-8 15 l-6 -36 -39 19 c-22 10 -44 19 -49 19 -5 0 -38 14 -74 30 -35 17 -70 30
-77 30 -7 0 -16 3 -20 8 -4 4 -11 8 -14 8 -37 8 -53 18 -48 33 5 13 4 13 -7
-1 -18 -23 -29 -11 -16 16 9 20 9 20 -5 3 -14 -18 -16 -18 -58 1 -24 11 -65
41 -92 66 -27 25 -51 44 -54 41 -4 -4 6 -17 70 -86 15 -16 22 -29 15 -29 -6 0
-21 11 -32 23 -11 13 -45 52 -75 87 -30 35 -65 75 -77 87 -13 13 -23 26 -23
29 0 3 -13 25 -30 49 -16 24 -30 48 -30 54 0 6 -4 11 -10 11 -5 0 -10 6 -10
14 0 8 -6 17 -12 19 -7 3 -4 6 7 6 14 1 7 8 -22 22 -24 12 -40 25 -37 30 3 5
-5 9 -18 9 -18 0 -20 2 -8 10 13 8 13 10 -2 10 -9 0 -20 5 -24 11 -5 9 9 10
55 5 40 -5 61 -3 61 4 0 5 -6 10 -12 10 -9 0 -8 3 2 10 8 5 24 8 35 6 11 -2
14 -1 8 1 -26 9 -12 23 20 20 27 -1 33 -6 29 -19z m2051 7 c-3 -9 -8 -14 -10
-11 -3 3 -2 9 2 15 9 16 15 13 8 -4z m-3746 -37 c-3 -7 -5 -2 -5 12 0 14 2 19
5 13 2 -7 2 -19 0 -25z m-20 -20 c-3 -8 -6 -5 -6 6 -1 11 2 17 5 13 3 -3 4
-12 1 -19z m2300 6 c-3 -3 -12 -4 -19 -1 -8 3 -5 6 6 6 11 1 17 -2 13 -5z m50
-10 c-3 -3 -12 -4 -19 -1 -8 3 -5 6 6 6 11 1 17 -2 13 -5z m-237 -28 c0 -3 -7
-12 -16 -20 -23 -23 -40 -19 -19 4 16 18 35 26 35 16z m1487 -2 c-3 -3 -12 -4
-19 -1 -8 3 -5 6 6 6 11 1 17 -2 13 -5z m-237 -44 c13 -8 13 -10 -2 -10 -9 0
-20 5 -23 10 -8 13 5 13 25 0z m1195 0 c-3 -5 -12 -10 -18 -10 -7 0 -6 4 3 10
19 12 23 12 15 0z m-1054 -62 c30 -18 68 -35 84 -37 17 -1 50 -11 74 -22 24
-10 47 -17 51 -14 5 3 11 1 15 -5 3 -5 -2 -10 -12 -11 -16 0 -16 -1 2 -10 50
-23 -45 5 -107 32 -36 16 -71 29 -77 29 -6 0 -11 5 -11 10 0 6 -8 10 -17 10
-10 0 -45 13 -78 29 -45 21 -55 30 -40 33 26 6 51 -4 116 -44z m1129 32 c0 -5
-2 -10 -4 -10 -3 0 -8 5 -11 10 -3 6 -1 10 4 10 6 0 11 -4 11 -10z m-1885 -40
c3 -6 -1 -7 -9 -4 -18 7 -21 14 -7 14 6 0 13 -4 16 -10z m-15 -15 l25 -14 -37
-1 c-20 0 -40 5 -44 12 -4 7 -3 8 4 4 7 -4 12 -2 12 3 0 14 10 13 40 -4z
m1751 -21 c-29 -13 -59 -24 -65 -23 -16 1 86 49 104 48 8 0 -9 -11 -39 -25z
m-1431 -8 c0 -8 -9 -21 -20 -29 -11 -8 -17 -18 -12 -23 4 -4 -1 -2 -11 5 -14
11 -15 16 -5 23 10 6 10 10 -2 19 -12 8 -10 9 8 4 13 -4 22 -2 22 4 0 6 5 11
10 11 6 0 10 -6 10 -14z m27 7 c-3 -5 1 -14 9 -21 11 -10 14 -10 14 0 0 9 3 9
11 1 14 -14 2 -36 -16 -29 -7 2 -16 2 -19 -2 -4 -3 -15 -6 -26 -7 -20 -2 -20
-1 2 22 12 12 18 23 14 23 -4 0 -4 5 -1 10 3 6 8 10 11 10 3 0 3 -3 1 -7z
m1498 -32 c-6 -5 -21 -12 -35 -15 -24 -7 -24 -6 -6 8 21 17 57 23 41 7z m51
-10 c-3 -5 -15 -11 -26 -14 -17 -4 -19 -3 -9 9 12 15 44 20 35 5z m-826 -11
c18 -12 2 -12 -25 0 -13 6 -15 9 -5 9 8 0 22 -4 30 -9z m875 1 c-6 -5 -21 -12
-35 -15 -24 -7 -24 -6 -6 8 21 17 57 23 41 7z m-1555 -13 c0 -4 -9 -8 -20 -8
-11 0 -20 4 -20 8 0 4 9 8 20 8 11 0 20 -4 20 -8z m1596 -3 c-23 -17 -36 -19
-36 -6 0 11 18 19 40 20 11 0 10 -3 -4 -14z m50 -10 c-23 -17 -36 -19 -36 -6
0 11 18 19 40 20 11 0 10 -3 -4 -14z m-1416 -5 c13 7 19 6 23 -4 7 -17 -1 -26
-22 -26 -26 0 -44 16 -35 31 6 10 9 10 12 1 2 -8 9 -9 22 -2z m447 4 c-3 -3
-12 -4 -19 -1 -8 3 -5 6 6 6 11 1 17 -2 13 -5z m86 -15 c20 -7 37 -16 37 -20
0 -4 10 -5 23 -3 l22 5 -23 -12 c-35 -19 -142 17 -126 43 3 5 11 7 17 4 7 -3
29 -10 50 -17z m937 12 c0 -11 -31 -24 -39 -16 -3 3 1 10 9 15 19 12 30 12 30
1z m-1391 -27 c6 4 11 2 11 -4 0 -6 4 -9 8 -6 5 3 9 -1 9 -9 0 -8 -4 -12 -9
-9 -5 3 -17 -1 -26 -9 -20 -18 -72 -11 -72 9 0 8 5 14 11 14 5 0 7 -4 4 -10
-4 -7 2 -7 19 0 16 6 26 5 30 -1 2 -5 3 -4 2 3 -2 7 -11 11 -21 10 -16 -3 -17
-2 -5 13 9 11 15 13 20 4 4 -6 13 -8 19 -5z m-89 -18 c0 -3 -4 -8 -10 -11 -5
-3 -10 -1 -10 4 0 6 5 11 10 11 6 0 10 -2 10 -4z m687 -2 c-3 -3 -12 -4 -19
-1 -8 3 -5 6 6 6 11 1 17 -2 13 -5z m-30 -20 c-3 -3 -12 -4 -19 -1 -8 3 -5 6
6 6 11 1 17 -2 13 -5z m1153 -4 c0 -5 -4 -10 -10 -10 -5 0 -10 5 -10 10 0 6 5
10 10 10 6 0 10 -4 10 -10z m55 0 c3 -5 1 -10 -4 -10 -6 0 -11 5 -11 10 0 6 2
10 4 10 3 0 8 -4 11 -10z m-1735 -14 c0 -9 15 -17 40 -21 36 -6 54 -27 33 -37
-13 -5 -53 -66 -53 -79 0 -7 23 11 51 40 40 41 56 51 73 47 11 -3 30 -6 41 -6
20 -1 20 -1 1 -12 -11 -6 -28 -11 -39 -12 -28 -1 -34 -26 -7 -26 17 0 21 -4
15 -17 -5 -15 -4 -16 6 -5 27 26 80 3 58 -25 -17 -19 -5 -16 21 7 15 13 31 18
46 14 17 -4 26 -1 30 10 3 9 13 16 21 16 13 0 13 -3 3 -15 -10 -12 -10 -15 4
-15 9 0 16 -4 16 -10 0 -5 7 -10 15 -10 8 0 15 -9 15 -20 0 -26 11 -25 39 1
32 30 38 16 8 -17 -26 -28 -27 -44 -2 -44 9 0 12 -6 9 -15 -7 -17 -3 -18 20
-9 23 9 19 31 -6 38 l-23 7 25 13 c46 25 67 28 74 10 8 -21 -2 -33 -13 -15 -5
7 -14 10 -20 6 -20 -12 9 -37 36 -30 18 4 23 1 23 -14 0 -10 -7 -21 -15 -25
-19 -7 -20 -26 -1 -26 8 0 24 -9 37 -19 l24 -19 -58 -56 c-31 -31 -63 -56 -70
-56 -7 0 -30 9 -52 20 -22 11 -47 20 -57 20 -10 0 -18 5 -18 10 0 6 -11 10
-25 10 -14 0 -25 -5 -25 -11 0 -6 6 -9 13 -6 6 2 23 -4 36 -14 13 -11 35 -19
50 -19 21 0 23 -2 11 -11 -12 -8 -9 -9 13 -5 18 4 26 3 25 -5 -3 -13 20 -27
99 -62 l52 -22 -73 -75 c-84 -87 -132 -124 -147 -114 -6 4 3 13 21 22 32 15
32 16 10 24 -13 5 -25 6 -28 3 -3 -3 0 -5 6 -5 7 0 12 -4 12 -10 0 -15 -66
-23 -89 -11 -18 10 -19 15 -9 31 9 14 14 16 20 7 5 -7 8 -8 8 -1 0 24 -15 23
-36 -3 -21 -27 -23 -27 -70 -16 -27 6 -60 14 -73 19 -16 5 -22 4 -18 -3 4 -6
21 -14 39 -17 51 -10 65 -21 48 -40 -7 -9 -11 -18 -9 -20 2 -2 45 -18 94 -36
103 -37 123 -50 77 -50 -22 0 -30 -4 -26 -14 3 -7 -2 -16 -10 -19 -9 -4 -16
-18 -16 -32 0 -14 -3 -25 -6 -25 -4 0 -29 14 -56 30 -26 17 -50 30 -52 30 -2
0 -34 14 -72 32 -38 17 -71 32 -74 33 -3 0 -11 4 -17 8 -7 5 -17 5 -23 2 -5
-3 -20 1 -34 10 -13 9 -52 24 -87 34 -35 10 -75 23 -89 29 -14 6 -59 20 -100
33 -41 12 -79 25 -83 29 -10 9 -13 107 -4 116 4 4 26 0 49 -9 58 -21 112 -31
105 -20 -3 5 -39 18 -79 28 l-74 18 7 61 c3 34 9 71 13 84 5 13 3 22 -3 22 -6
0 -10 -3 -10 -7 1 -5 1 -17 0 -28 -1 -16 -3 -17 -10 -5 -6 8 -7 18 -4 23 3 5
0 13 -7 17 -7 4 -1 9 18 13 25 5 31 13 42 54 26 96 138 293 166 293 8 0 31 -7
51 -15 19 -8 42 -15 51 -15 8 0 24 -7 34 -17 17 -15 18 -15 18 4 0 12 -7 24
-16 27 -8 3 -12 10 -9 16 9 15 25 12 25 -4z m567 8 c-3 -3 -12 -4 -19 -1 -8 3
-5 6 6 6 11 1 17 -2 13 -5z m101 -15 c43 -12 65 -39 33 -39 -25 0 -84 21 -98
36 -14 13 -5 27 13 20 7 -3 30 -10 52 -17z m1139 -1 c-3 -8 -6 -5 -6 6 -1 11
2 17 5 13 3 -3 4 -12 1 -19z m-290 -34 c-3 -3 -12 -4 -19 -1 -8 3 -5 6 6 6 11
1 17 -2 13 -5z m110 -20 c-3 -3 -12 -4 -19 -1 -8 3 -5 6 6 6 11 1 17 -2 13 -5z
m-665 -25 c23 -6 38 -16 38 -25 0 -10 -6 -14 -17 -10 -10 2 -29 7 -43 11 -47
12 -80 27 -80 37 0 11 30 7 102 -13z m725 15 c-3 -3 -12 -4 -19 -1 -8 3 -5 6
6 6 11 1 17 -2 13 -5z m-1437 -37 c0 -4 -10 -3 -21 4 -17 9 -19 13 -8 20 13 8
28 -5 29 -24z m60 -7 c0 -5 -7 -10 -15 -10 -8 0 -15 5 -15 10 0 6 7 10 15 10
8 0 15 -4 15 -10z m958 -41 c26 -10 29 -29 5 -29 -21 0 -122 28 -108 29 6 1 3
6 -5 12 -17 11 70 2 108 -12z m265 -50 c32 -7 58 -18 62 -27 4 -12 -1 -14 -32
-8 -21 3 -48 6 -60 6 -12 0 -27 9 -33 20 -12 23 -11 24 63 9z m-1925 -44 c29
-9 57 -13 62 -10 6 3 10 1 10 -4 0 -16 -38 -12 -95 9 -62 23 -47 26 23 5z
m2255 -11 c23 -4 37 -12 37 -21 0 -12 -11 -13 -57 -7 -63 7 -73 10 -73 25 0
10 38 12 93 3z m-2279 -26 c22 -6 50 -18 61 -26 l20 -14 -20 7 c-27 10 -87 26
-102 27 -13 1 -19 18 -7 18 4 0 25 -5 48 -12z m1003 -4 c-3 -3 -12 -4 -19 -1
-8 3 -5 6 6 6 11 1 17 -2 13 -5z m3988 -4 c3 -5 2 -10 -4 -10 -5 0 -13 5 -16
10 -3 6 -2 10 4 10 5 0 13 -4 16 -10z m110 0 c8 -13 -5 -13 -25 0 -13 8 -13
10 2 10 9 0 20 -4 23 -10z m-3625 -4 c0 -2 -7 -7 -16 -10 -8 -3 -12 -2 -9 4 6
10 25 14 25 6z m-2061 -22 c10 -9 -35 -3 -49 6 -11 8 -7 9 15 4 17 -4 32 -8
34 -10z m2501 -14 c25 -6 57 -14 73 -17 21 -4 25 -8 17 -18 -8 -10 -8 -15 1
-21 8 -5 9 -3 4 6 -5 9 -4 11 3 6 20 -12 13 -28 -9 -21 -15 5 -19 4 -15 -4 4
-7 -1 -11 -13 -11 -11 0 -23 5 -26 10 -3 6 -12 10 -18 10 -8 0 -8 -3 -2 -8 6
-4 11 -16 11 -27 0 -11 5 -19 10 -18 6 1 11 -5 11 -13 0 -7 -5 -14 -11 -14
-11 0 -47 -28 -115 -87 -20 -17 -38 -30 -40 -27 -3 2 1 10 7 16 7 7 12 18 12
26 0 10 -3 10 -16 -2 -17 -18 -28 -21 -19 -7 3 6 -1 13 -9 18 -8 4 -15 11 -15
16 -1 4 -4 6 -8 5 -5 -2 -7 -6 -5 -10 1 -5 -8 -8 -20 -8 -46 0 -77 -45 -57
-82 9 -17 9 -23 -1 -26 -21 -7 -60 -53 -54 -63 3 -5 -2 -9 -10 -9 -9 0 -16 -4
-16 -9 0 -6 12 -6 32 0 41 11 47 11 28 -1 -13 -8 -12 -10 4 -10 15 0 16 -3 7
-14 -15 -18 16 -31 35 -15 17 14 17 13 5 -29 -11 -38 -5 -43 9 -7 5 14 16 25
24 25 13 0 13 -3 0 -27 -16 -32 -18 -57 -4 -48 12 7 12 -22 0 -50 l-9 -20 -1
20 c0 11 -7 31 -15 45 -12 23 -14 23 -21 6 -5 -12 -2 -21 9 -28 24 -13 21 -28
-5 -29 -22 0 -22 -1 -3 -9 17 -7 17 -9 3 -9 -15 -1 -18 -11 -18 -70 0 -39 5
-73 10 -76 6 -3 8 -18 5 -32 -2 -14 0 -35 6 -47 10 -21 10 -21 -6 -1 -9 11
-14 30 -12 42 2 12 0 24 -6 26 -5 1 -9 45 -9 100 0 56 -4 97 -10 97 -5 0 -7
-4 -3 -9 3 -6 -2 -14 -11 -19 -21 -12 -56 -4 -47 11 4 6 1 7 -7 2 -7 -4 -16
-2 -21 6 -5 9 -9 -22 -9 -78 0 -90 1 -93 23 -92 21 0 21 1 2 9 -16 7 -17 9 -3
9 9 1 20 -3 23 -9 3 -5 11 -10 16 -10 6 0 7 6 3 13 -5 8 -2 8 9 -2 17 -13 24
-66 10 -74 -5 -2 -2 -2 4 -1 7 2 17 -5 23 -15 11 -21 -3 -31 -42 -31 -24 0
-22 -13 11 -100 22 -58 25 -72 13 -55 -20 28 -42 38 -57 25 -19 -16 -37 5 -56
65 -7 22 -16 45 -21 51 -4 6 -4 15 0 20 4 4 0 3 -10 -4 -9 -7 -19 -9 -22 -4
-3 5 -10 60 -16 123 -6 63 -15 116 -20 117 -6 2 -10 20 -11 40 -1 83 -16 77
-24 -9 -12 -147 13 -304 70 -443 6 -14 5 -17 -3 -12 -20 12 -63 117 -79 191
-10 51 -14 119 -11 247 2 97 6 174 9 172 4 -2 9 12 12 31 6 39 74 178 120 244
43 63 117 141 133 141 21 0 17 -7 -32 -57 -25 -25 -65 -75 -89 -112 -42 -65
-109 -234 -102 -255 3 -6 10 9 16 34 13 47 45 92 74 103 10 4 17 2 17 -6 0 -7
7 -4 14 6 9 11 15 14 18 7 3 -11 83 124 83 141 0 4 4 11 9 16 5 5 6 2 1 -6 -6
-10 -4 -12 4 -6 7 4 10 17 7 29 -3 11 -1 27 3 35 7 11 10 9 16 -8 6 -20 25
-20 25 0 0 6 -4 7 -10 4 -15 -9 -12 0 11 46 12 22 31 44 42 48 21 8 81 1 157
-19z m3655 10 c-27 -5 -66 -8 -85 -8 -32 1 -31 2 10 8 25 4 63 7 85 7 38 0 37
0 -10 -7z m-6111 -16 c4 -9 4 -19 1 -22 -3 -3 -5 0 -5 6 0 7 -7 12 -15 12 -8
0 -15 5 -15 10 0 16 27 11 34 -6z m-1237 0 c-3 -3 -12 -4 -19 -1 -8 3 -5 6 6
6 11 1 17 -2 13 -5z m7472 -10 c9 -8 -75 -2 -94 6 -12 5 1 6 35 3 30 -3 57 -7
59 -9z m-7503 -5 c3 -6 17 -8 30 -5 17 5 24 2 24 -8 0 -10 6 -13 16 -9 13 5
13 7 2 14 -31 20 -7 12 262 -84 186 -66 222 -81 214 -89 -3 -4 3 -4 15 -1 12
3 21 1 21 -6 0 -6 10 -11 22 -11 37 0 169 -54 164 -67 -3 -7 5 -15 17 -18 43
-13 97 -39 97 -47 0 -11 6 -12 -90 23 -47 16 -130 45 -185 64 -55 19 -174 62
-265 95 -176 66 -256 95 -307 112 -18 6 -33 16 -33 21 0 5 -7 6 -16 3 -8 -3
-22 1 -30 9 -14 13 -13 15 10 15 14 0 28 -5 32 -11z m7581 5 c-3 -3 -12 -4
-19 -1 -8 3 -5 6 6 6 11 1 17 -2 13 -5z m-210 -10 c-3 -3 -12 -4 -19 -1 -8 3
-5 6 6 6 11 1 17 -2 13 -5z m-5977 -20 c0 -2 -7 -4 -15 -4 -8 0 -15 4 -15 10
0 5 7 7 15 4 8 -4 15 -8 15 -10z m3705 -35 c-6 -9 -55 1 -55 11 0 13 44 17 52
6 4 -6 5 -13 3 -17z m133 5 c32 -9 27 -24 -7 -24 -30 0 -46 12 -34 24 8 7 12
7 41 0z m317 -25 c-9 -14 -34 2 -28 17 4 11 9 12 19 3 8 -6 11 -15 9 -20z
m2348 24 c-7 -2 -21 -2 -30 0 -10 3 -4 5 12 5 17 0 24 -2 18 -5z m-2963 -13
c0 -5 -6 -10 -14 -10 -8 0 -18 5 -21 10 -3 6 3 10 14 10 12 0 21 -4 21 -10z
m38 -1 c-2 -6 -8 -10 -13 -10 -5 0 -11 4 -13 10 -2 6 4 11 13 11 9 0 15 -5 13
-11z m357 2 c3 -5 1 -12 -5 -16 -13 -8 -50 3 -50 16 0 12 47 12 55 0z m2530
-1 c37 -5 42 -8 19 -9 -17 0 -44 -3 -60 -5 -17 -2 -20 -1 -9 3 12 3 -7 8 -45
12 l-65 6 55 0 c30 1 78 -2 105 -7z m1132 4 c-3 -3 -12 -4 -19 -1 -8 3 -5 6 6
6 11 1 17 -2 13 -5z m-5192 -22 c-3 -3 -11 0 -18 7 -9 10 -8 11 6 5 10 -3 15
-9 12 -12z m1215 8 c0 -5 -4 -10 -9 -10 -6 0 -13 5 -16 10 -3 6 1 10 9 10 9 0
16 -4 16 -10z m395 0 c4 -6 -8 -10 -29 -10 -20 0 -36 5 -36 10 0 6 13 10 29
10 17 0 33 -4 36 -10z m2168 3 c-7 -2 -19 -2 -25 0 -7 3 -2 5 12 5 14 0 19 -2
13 -5z m44 -9 c-3 -3 -12 -4 -19 -1 -8 3 -5 6 6 6 11 1 17 -2 13 -5z m-3602
-14 c-3 -5 -13 -10 -21 -10 -8 0 -14 5 -14 10 0 6 9 10 21 10 11 0 17 -4 14
-10z m-1015 -50 c0 -5 -5 -10 -11 -10 -5 0 -7 5 -4 10 3 6 8 10 11 10 2 0 4
-4 4 -10z m735 -16 c-26 -20 -55 -36 -55 -30 0 5 63 46 70 46 3 -1 -4 -8 -15
-16z m-761 -12 c2 -4 -4 -8 -14 -8 -10 0 -16 4 -14 8 3 4 9 8 14 8 5 0 11 -4
14 -8z m-118 -38 l-7 -26 31 22 c50 36 47 14 -5 -35 -26 -25 -46 -48 -44 -50
3 -2 23 -1 45 2 32 4 45 12 58 35 28 47 28 27 0 -53 -14 -41 -28 -82 -31 -92
-5 -15 -12 -18 -42 -12 -19 4 -53 15 -73 25 -21 10 -38 15 -38 11 0 -7 -44
-31 -57 -31 -3 0 2 9 12 20 22 24 4 27 -30 4 -18 -12 -25 -13 -25 -4 0 12 196
210 207 210 3 0 2 -12 -1 -26z m297 -26 c-4 -18 -7 -62 -5 -98 2 -66 -11 -110
-34 -110 -7 0 -16 -9 -19 -21 -4 -11 -12 -18 -18 -16 -7 2 -45 15 -84 28 -52
16 -73 28 -73 39 0 20 59 140 68 140 4 0 14 -5 22 -10 10 -6 25 -1 50 17 19
15 37 29 40 32 8 9 44 30 53 30 5 1 5 -14 0 -31z m237 23 c0 -6 -4 -13 -10
-16 -5 -3 -10 1 -10 9 0 9 5 16 10 16 6 0 10 -4 10 -9z m228 -41 c28 -13 52
-28 52 -33 0 -4 -4 -6 -9 -3 -10 6 -64 27 -71 28 -14 0 -40 20 -40 29 0 6 3 9
8 7 4 -3 31 -15 60 -28z m3519 -46 c-3 -3 -12 -4 -19 -1 -8 3 -5 6 6 6 11 1
17 -2 13 -5z m-3973 -19 c3 -8 1 -15 -4 -15 -6 0 -10 7 -10 15 0 8 2 15 4 15
2 0 6 -7 10 -15z m-2249 -15 c-3 -5 -12 -10 -18 -10 -7 0 -6 4 3 10 19 12 23
12 15 0z m988 -9 c23 -10 57 -22 75 -26 17 -3 32 -13 32 -20 0 -10 -13 -9 -60
6 -72 22 -100 36 -100 49 0 14 5 13 53 -9z m1792 -19 c11 -13 14 -22 8 -20 -6
2 -18 -6 -26 -17 -14 -19 -15 -18 -10 9 4 20 2 27 -6 22 -6 -4 -11 -15 -12
-24 0 -11 -2 -12 -6 -4 -4 11 25 70 30 60 1 -1 11 -13 22 -26z m-2711 -3 c5
-5 -5 -4 -24 1 -18 5 -35 12 -39 16 -9 9 53 -7 63 -17z m3150 -8 c9 -8 19 -11
23 -7 3 3 0 6 -7 6 -7 0 -11 2 -8 5 3 3 12 3 21 -1 14 -5 14 -8 2 -20 -7 -8
-21 -14 -30 -14 -9 0 -25 -5 -35 -10 -15 -8 -21 -6 -30 10 -9 16 -8 22 5 26 8
3 12 10 9 15 -8 13 32 5 50 -10z m-1627 -7 c-3 -3 -12 -4 -19 -1 -8 3 -5 6 6
6 11 1 17 -2 13 -5z m-594 -31 c15 -3 27 -9 27 -14 0 -5 6 -6 13 -3 7 2 35 -5
63 -18 32 -14 43 -23 32 -26 -10 -2 -32 3 -48 12 -17 8 -28 11 -25 7 2 -5 -25
1 -60 13 -38 12 -65 27 -65 35 0 8 6 11 18 6 9 -3 29 -9 45 -12z m692 5 c14
-6 25 -14 25 -18 0 -12 -49 1 -61 16 -14 18 0 18 36 2z m1105 2 c0 -5 -5 -10
-11 -10 -5 0 -7 5 -4 10 3 6 8 10 11 10 2 0 4 -4 4 -10z m-2420 -20 c0 -5 -2
-10 -4 -10 -3 0 -8 5 -11 10 -3 6 -1 10 4 10 6 0 11 -4 11 -10z m2900 2 c0 -4
-4 -21 -9 -39 -7 -23 -6 -33 2 -36 7 -2 -5 -6 -25 -8 -32 -4 -38 -2 -38 13 0
10 7 18 15 18 23 0 18 21 -6 27 -20 6 -20 7 7 19 34 15 54 17 54 6z m-2873
-44 c-3 -7 -5 -2 -5 12 0 14 2 19 5 13 2 -7 2 -19 0 -25z m47 -10 c-3 -5 -12
-2 -20 6 -20 21 -17 28 5 14 11 -7 17 -16 15 -20z m928 -72 c11 -42 13 -44 57
-50 93 -13 195 -34 174 -35 -13 -1 -26 -12 -35 -31 -12 -28 -28 -40 -28 -22 0
4 -30 8 -67 8 -67 0 -96 8 -318 84 -44 15 -100 33 -125 40 -25 8 -50 17 -56
22 -7 5 -18 7 -25 6 -10 -2 -15 9 -17 35 -2 20 0 37 5 37 11 0 122 -35 153
-48 58 -24 260 -83 269 -78 11 7 3 42 -15 71 -6 11 -15 31 -19 45 -5 21 -3 20
14 -8 12 -18 27 -53 33 -76z m495 78 l25 -27 -32 7 c-18 3 -38 6 -44 6 -20 0
-39 17 -32 29 13 20 58 12 83 -15z m1308 6 c13 -6 15 -9 5 -9 -13 -1 -13 -2 0
-11 13 -9 13 -10 0 -10 -8 0 -25 3 -38 6 -18 5 -20 9 -11 20 13 16 16 16 44 4z
m-2672 -15 c4 0 7 -3 7 -7 0 -31 -1 -32 -10 -18 -5 8 -14 16 -20 16 -20 3 -21
4 -15 14 4 6 12 7 18 3 7 -4 15 -8 20 -8z m967 -30 c0 -8 7 -15 15 -15 8 0 15
-5 15 -11 0 -6 -7 -8 -16 -5 -9 3 -18 6 -20 6 -2 0 -4 6 -4 14 0 8 -6 17 -12
19 -8 3 -6 6 5 6 9 1 17 -6 17 -14z m1413 9 c-8 -4 -9 -14 -3 -35 8 -25 6 -30
-5 -25 -8 3 -15 1 -15 -4 0 -6 7 -10 15 -10 24 0 18 -50 -8 -74 -13 -12 -29
-20 -35 -18 -16 5 -15 69 1 79 13 9 18 53 5 53 -4 0 -8 -11 -8 -25 0 -14 -6
-25 -14 -25 -9 0 -12 8 -8 25 2 14 8 25 12 25 4 0 17 9 30 20 13 11 28 20 34
19 7 0 7 -2 -1 -5z m47 -91 c-1 -90 -2 -96 -15 -73 -17 30 -19 95 -4 139 6 17
13 31 15 31 2 0 4 -44 4 -97z m-973 71 c-3 -3 -12 -4 -19 -1 -8 3 -5 6 6 6 11
1 17 -2 13 -5z m40 -10 c-3 -3 -12 -4 -19 -1 -8 3 -5 6 6 6 11 1 17 -2 13 -5z
m207 -10 c10 -26 7 -111 -5 -138 -10 -21 -53 -46 -80 -46 -4 0 -5 31 -2 70 4
49 2 74 -7 85 -15 18 -13 21 20 34 38 15 67 13 74 -5z m1006 -4 c0 -5 -5 -10
-11 -10 -5 0 -7 5 -4 10 3 6 8 10 11 10 2 0 4 -4 4 -10z m-1152 -46 c-3 -27
-4 -26 -9 8 -3 22 -1 34 4 29 5 -5 7 -21 5 -37z m-1333 17 c3 -5 1 -12 -5 -16
-5 -3 -10 1 -10 9 0 18 6 21 15 7z m770 -1 c-3 -5 -14 -10 -23 -10 -15 0 -15
2 -2 10 20 13 33 13 25 0z m70 -12 c6 -4 2 -8 -7 -8 -10 0 -18 7 -18 17 0 9 3
12 8 7 4 -5 12 -12 17 -16z m1032 0 c-3 -8 -6 -5 -6 6 -1 11 2 17 5 13 3 -3 4
-12 1 -19z m733 12 c-8 -5 -22 -9 -30 -9 -10 0 -8 3 5 9 27 12 43 12 25 0z
m-306 -6 c8 -3 12 -12 9 -21 -4 -11 -2 -14 5 -9 7 4 12 4 12 -1 0 -12 -20 -39
-20 -28 0 6 -4 4 -9 -3 -7 -12 -12 -12 -29 -1 -52 32 -25 85 32 63z m-554 -20
c0 -8 -5 -12 -10 -9 -6 4 -8 11 -5 16 9 14 15 11 15 -7z m-423 -46 c-3 -8 -6
-5 -6 6 -1 11 2 17 5 13 3 -3 4 -12 1 -19z m-904 -13 c0 -6 -7 -11 -16 -11
-16 -2 -16 -1 -1 3 14 4 15 7 3 15 -11 7 -11 9 -1 6 8 -2 14 -8 15 -13z m1332
6 c3 -5 1 -12 -5 -16 -5 -3 -10 1 -10 9 0 18 6 21 15 7z m-1480 -10 c10 -17
-12 -21 -25 -6 -10 12 -10 15 3 15 9 0 18 -4 22 -9z m195 -16 c0 -7 2 -19 3
-27 2 -7 2 -10 0 -5 -3 4 -11 7 -18 7 -18 0 -26 15 -19 33 7 18 34 11 34 -8z
m1690 -9 c0 -13 7 -29 15 -36 8 -7 15 -18 15 -24 0 -6 -5 -4 -10 4 -9 13 -10
13 -10 0 -1 -26 -20 11 -21 40 0 23 -1 23 -9 5 -10 -23 -12 -10 -4 22 8 28 24
20 24 -11z m-820 -3 c0 -20 -3 -24 -11 -16 -7 7 -9 19 -6 27 10 24 17 19 17
-11z m-835 7 c3 -6 -1 -7 -9 -4 -18 7 -21 14 -7 14 6 0 13 -4 16 -10z m1395
-9 c0 -6 -4 -13 -10 -16 -5 -3 -14 -20 -19 -38 -7 -24 -9 -27 -10 -10 -1 26
19 73 31 73 4 0 8 -4 8 -9z m645 -11 c7 -12 -2 -12 -30 0 -19 8 -19 9 2 9 12
1 25 -3 28 -9z m-2115 -10 c0 -5 5 -9 12 -7 6 1 14 -6 16 -15 2 -10 -1 -18 -7
-18 -6 0 -11 4 -11 9 0 5 -9 11 -21 14 -12 3 -18 10 -14 16 8 14 25 14 25 1z
m150 -14 c0 -3 -4 -8 -10 -11 -5 -3 -10 -1 -10 4 0 6 5 11 10 11 6 0 10 -2 10
-4z m-40 -10 c0 -2 -8 -10 -17 -17 -16 -13 -17 -12 -4 4 13 16 21 21 21 13z
m482 -18 c33 -10 36 -14 35 -44 -2 -28 -6 -34 -24 -34 -13 0 -23 -4 -23 -10 0
-16 -84 0 -101 20 -9 11 -19 16 -23 13 -3 -4 -6 1 -6 11 0 30 -21 6 -51 -58
-15 -33 -28 -55 -29 -47 0 11 -4 9 -15 -5 -24 -32 -17 2 15 72 17 37 34 63 40
59 5 -3 10 0 10 7 0 40 70 47 172 16z m1541 16 c3 -4 -1 -17 -9 -30 -9 -13
-13 -28 -9 -34 3 -5 2 -10 -2 -10 -5 0 -19 -18 -33 -40 -15 -24 -30 -38 -38
-35 -7 3 -10 0 -7 -5 3 -6 1 -10 -6 -10 -7 0 -9 10 -6 30 5 25 4 28 -11 23
-15 -6 -15 -5 -3 10 7 9 10 24 7 33 -4 11 -2 15 7 11 8 -3 21 3 30 14 12 13
13 19 4 19 -13 1 41 28 59 29 6 1 13 -2 17 -5z m-2003 -30 c0 -8 -4 -12 -10
-9 -5 3 -10 10 -10 16 0 5 5 9 10 9 6 0 10 -7 10 -16z m1799 -26 c1 -5 -3 -8
-9 -8 -5 0 -10 12 -9 28 0 24 1 25 9 7 5 -11 9 -23 9 -27z m-2339 -22 c0 -4
-6 -3 -13 3 -8 6 -17 8 -20 4 -4 -3 -7 1 -7 10 0 15 3 15 20 5 11 -7 20 -17
20 -22z m1307 -121 c49 -122 129 -198 221 -210 26 -3 63 -10 82 -15 33 -9 33
-9 3 -5 -17 2 -33 0 -35 -5 -4 -12 -91 10 -133 33 -60 33 -105 88 -149 182
-10 22 -22 47 -26 55 -4 9 -10 40 -13 70 l-6 55 15 -50 c9 -27 27 -77 41 -110z
m986 115 c-4 -15 -2 -19 10 -14 21 8 28 -8 11 -24 -8 -7 -14 -9 -14 -5 0 4 -5
1 -10 -7 -7 -11 -10 -6 -10 21 0 30 6 49 16 49 1 0 0 -9 -3 -20z m-53 -20 c0
-5 -2 -10 -4 -10 -3 0 -8 5 -11 10 -3 6 -1 10 4 10 6 0 11 -4 11 -10z m44 -53
c7 -6 6 -7 -4 -4 -8 2 -16 16 -17 33 -1 25 0 26 4 4 3 -14 10 -29 17 -33z
m-1960 -19 c-5 -8 -2 -9 9 -5 20 8 29 -4 16 -23 -6 -10 -9 -11 -9 -2 0 6 -7
12 -15 12 -8 0 -15 7 -15 15 0 8 5 15 11 15 5 0 7 -5 3 -12z m1612 -23 c-23
-17 -36 -19 -36 -6 0 11 18 19 40 20 11 0 10 -3 -4 -14z m-1166 -103 c0 -75
-1 -79 -25 -90 -25 -12 -26 -11 -20 21 3 17 8 41 10 52 2 11 4 44 4 73 1 48 3
52 16 38 11 -10 15 -37 15 -94z m210 42 c0 -2 -7 -4 -15 -4 -8 0 -15 4 -15 10
0 5 7 7 15 4 8 -4 15 -8 15 -10z m-490 -4 c13 -8 13 -10 -2 -10 -9 0 -20 5
-23 10 -8 13 5 13 25 0z m1231 -63 c-8 -8 -11 -7 -11 4 0 9 3 19 7 23 4 4 9 2
11 -4 3 -7 -1 -17 -7 -23z m159 13 c0 -5 -2 -10 -4 -10 -3 0 -8 5 -11 10 -3 6
-1 10 4 10 6 0 11 -4 11 -10z m-495 -131 l20 -8 -20 0 c-11 0 -33 6 -50 14
l-30 14 30 -6 c17 -3 39 -10 50 -14z"/>
<path d="M790 10750 c0 -5 5 -10 10 -10 6 0 10 5 10 10 0 6 -4 10 -10 10 -5 0
-10 -4 -10 -10z"/>
<path d="M1355 10650 c-3 -5 -1 -10 4 -10 6 0 11 5 11 10 0 6 -2 10 -4 10 -3
0 -8 -4 -11 -10z"/>
<path d="M1348 10623 c7 -3 16 -2 19 1 4 3 -2 6 -13 5 -11 0 -14 -3 -6 -6z"/>
<path d="M1748 10603 c7 -3 16 -2 19 1 4 3 -2 6 -13 5 -11 0 -14 -3 -6 -6z"/>
<path d="M1477 10570 c-4 -17 -2 -18 14 -9 11 5 29 7 39 4 24 -8 27 10 4 19
-30 11 -52 6 -57 -14z"/>
<path d="M1853 10543 c9 -2 23 -2 30 0 6 3 -1 5 -18 5 -16 0 -22 -2 -12 -5z"/>
<path d="M1952 10535 c3 -3 19 -10 36 -14 25 -8 30 -6 25 5 -3 8 -19 14 -36
14 -17 0 -28 -2 -25 -5z"/>
<path d="M3908 10073 c7 -3 16 -2 19 1 4 3 -2 6 -13 5 -11 0 -14 -3 -6 -6z"/>
<path d="M4518 9903 c7 -3 16 -2 19 1 4 3 -2 6 -13 5 -11 0 -14 -3 -6 -6z"/>
<path d="M4405 9849 c-4 -6 -5 -12 -2 -15 2 -3 7 2 10 11 7 17 1 20 -8 4z"/>
<path d="M4840 9803 c0 -22 2 -25 10 -13 13 20 13 40 0 40 -5 0 -10 -12 -10
-27z"/>
<path d="M4833 9710 c0 -25 2 -35 4 -22 2 12 2 32 0 45 -2 12 -4 2 -4 -23z"/>
<path d="M8953 9543 c9 -2 25 -2 35 0 9 3 1 5 -18 5 -19 0 -27 -2 -17 -5z"/>
<path d="M8309 9343 c-13 -16 -12 -17 4 -4 9 7 17 15 17 17 0 8 -8 3 -21 -13z"/>
<path d="M8255 9320 c-3 -5 1 -10 9 -10 8 0 18 5 21 10 3 6 -1 10 -9 10 -8 0
-18 -4 -21 -10z"/>
<path d="M8268 9293 c6 -2 18 -2 25 0 6 3 1 5 -13 5 -14 0 -19 -2 -12 -5z"/>
<path d="M8253 9273 c9 -2 25 -2 35 0 9 3 1 5 -18 5 -19 0 -27 -2 -17 -5z"/>
<path d="M7858 8113 c7 -3 16 -2 19 1 4 3 -2 6 -13 5 -11 0 -14 -3 -6 -6z"/>
<path d="M7205 7730 c3 -5 11 -10 16 -10 6 0 7 5 4 10 -3 6 -11 10 -16 10 -6
0 -7 -4 -4 -10z"/>
<path d="M7005 7670 c3 -5 18 -10 33 -10 21 0 24 2 12 10 -20 13 -53 13 -45 0z"/>
<path d="M7076 7651 c5 -4 29 -14 54 -20 25 -7 59 -16 75 -21 108 -30 148 -40
153 -35 3 3 0 5 -7 5 -7 0 -9 4 -6 10 3 5 0 7 -9 4 -8 -3 -52 6 -98 21 -155
49 -184 56 -162 36z"/>
<path d="M7982 7631 c-11 -7 -11 -9 2 -14 10 -4 16 -1 16 8 0 17 -1 17 -18 6z"/>
<path d="M7040 7611 c0 -6 4 -13 10 -16 6 -3 7 1 4 9 -7 18 -14 21 -14 7z"/>
<path d="M7551 7517 c9 -11 229 -65 229 -57 0 7 -38 18 -135 39 -27 6 -61 14
-75 17 -14 4 -22 4 -19 1z"/>
<path d="M7115 7490 c3 -5 8 -10 11 -10 2 0 4 5 4 10 0 6 -5 10 -11 10 -5 0
-7 -4 -4 -10z"/>
<path d="M8330 7470 c0 -5 5 -10 10 -10 6 0 10 5 10 10 0 6 -4 10 -10 10 -5 0
-10 -4 -10 -10z"/>
<path d="M7830 7451 c0 -5 7 -11 15 -15 8 -3 15 -1 15 3 0 5 -7 11 -15 15 -8
3 -15 1 -15 -3z"/>
<path d="M7870 7438 c0 -7 114 -44 160 -53 61 -12 20 13 -50 30 -105 26 -110
28 -110 23z"/>
<path d="M8074 7371 c4 -5 29 -14 57 -20 62 -14 69 -14 69 0 0 5 -4 8 -8 5 -5
-3 -26 1 -48 9 -45 16 -78 19 -70 6z"/>
<path d="M7731 7254 c0 -11 3 -14 6 -6 3 7 2 16 -1 19 -3 4 -6 -2 -5 -13z"/>
<path d="M7629 7203 c-13 -16 -12 -17 4 -4 9 7 17 15 17 17 0 8 -8 3 -21 -13z"/>
<path d="M8797 7231 c-24 -42 -21 -52 4 -13 12 18 20 35 17 37 -2 2 -12 -9
-21 -24z"/>
<path d="M8658 7193 c7 -3 16 -2 19 1 4 3 -2 6 -13 5 -11 0 -14 -3 -6 -6z"/>
<path d="M8760 7170 c0 -5 5 -10 10 -10 6 0 10 5 10 10 0 6 -4 10 -10 10 -5 0
-10 -4 -10 -10z"/>
<path d="M8803 7145 c0 -15 34 -28 42 -16 2 5 -6 13 -19 19 -17 8 -23 7 -23
-3z"/>
<path d="M8870 7110 c0 -12 8 -12 35 0 18 8 17 9 -7 9 -16 1 -28 -3 -28 -9z"/>
<path d="M8920 7090 c0 -5 4 -10 9 -10 6 0 13 5 16 10 3 6 -1 10 -9 10 -9 0
-16 -4 -16 -10z"/>
<path d="M8970 7075 c0 -14 35 -28 64 -25 10 1 15 -3 12 -8 -9 -16 31 -25 51
-12 16 10 16 11 -3 7 -13 -3 -26 3 -34 13 -7 10 -19 16 -27 13 -7 -3 -13 -1
-13 5 0 5 -11 12 -25 14 -16 3 -25 1 -25 -7z"/>
<path d="M9244 6903 c7 -8 11 -9 39 -12 8 -1 7 -4 -3 -11 -9 -6 -10 -10 -3
-10 21 0 24 19 4 29 -23 13 -48 15 -37 4z"/>
<path d="M8615 6870 c-3 -5 -1 -10 4 -10 6 0 11 5 11 10 0 6 -2 10 -4 10 -3 0
-8 -4 -11 -10z"/>
<path d="M8650 6826 c0 -2 7 -7 16 -10 8 -3 12 -2 9 4 -6 10 -25 14 -25 6z"/>
<path d="M8746 6795 c43 -19 92 -30 79 -18 -10 10 -85 34 -101 32 -5 0 5 -7
22 -14z"/>
<path d="M9109 6773 c-12 -16 -12 -17 2 -6 9 7 20 9 24 5 5 -4 5 -1 1 6 -9 16
-11 15 -27 -5z"/>
<path d="M8850 6760 c8 -5 22 -9 30 -9 10 0 8 3 -5 9 -27 12 -43 12 -25 0z"/>
<path d="M10036 6843 c-6 -14 -5 -15 5 -6 7 7 10 15 7 18 -3 3 -9 -2 -12 -12z"/>
<path d="M10047 6567 c-3 -8 -2 -20 3 -26 5 -9 8 -4 8 13 0 29 -3 32 -11 13z"/>
<path d="M9991 6513 c-1 -17 16 -25 25 -12 4 7 3 9 -4 5 -5 -3 -13 0 -15 6 -4
9 -6 10 -6 1z"/>
<path d="M9862 6410 c0 -14 2 -19 5 -12 2 6 2 18 0 25 -3 6 -5 1 -5 -13z"/>
<path d="M9872 6290 c0 -14 2 -19 5 -12 2 6 2 18 0 25 -3 6 -5 1 -5 -13z"/>
<path d="M9290 6696 c0 -2 9 -6 20 -9 11 -3 18 -1 14 4 -5 9 -34 13 -34 5z"/>
<path d="M8670 6360 c0 -5 5 -10 10 -10 6 0 10 5 10 10 0 6 -4 10 -10 10 -5 0
-10 -4 -10 -10z"/>
<path d="M6142 11640 c-40 -9 -101 -59 -102 -83 0 -5 7 -1 16 7 16 16 34 19
90 16 31 -1 43 15 44 58 0 13 -1 13 -48 2z"/>
<path d="M7318 11503 c6 -2 18 -2 25 0 6 3 1 5 -13 5 -14 0 -19 -2 -12 -5z"/>
<path d="M7388 11493 c7 -3 16 -2 19 1 4 3 -2 6 -13 5 -11 0 -14 -3 -6 -6z"/>
<path d="M5176 11419 c2 -4 11 -6 19 -2 8 3 15 0 15 -7 0 -7 7 -10 16 -6 8 3
47 -3 87 -13 40 -11 106 -22 147 -26 78 -6 264 -41 388 -72 12 -3 22 -1 22 5
0 5 -22 12 -50 16 -27 4 -52 11 -55 16 -3 4 -34 12 -70 15 -36 4 -65 11 -65
15 0 4 -12 7 -27 8 -47 1 -148 22 -151 32 -2 6 -39 10 -83 10 -43 0 -79 3 -79
8 0 4 -27 7 -60 8 -33 1 -57 -2 -54 -7z"/>
<path d="M5303 11363 c9 -2 25 -2 35 0 9 3 1 5 -18 5 -19 0 -27 -2 -17 -5z"/>
<path d="M5505 11340 c3 -5 10 -10 16 -10 5 0 9 5 9 10 0 6 -7 10 -16 10 -8 0
-12 -4 -9 -10z"/>
<path d="M5628 11303 c6 -2 18 -2 25 0 6 3 1 5 -13 5 -14 0 -19 -2 -12 -5z"/>
<path d="M5900 11290 c0 -5 5 -10 10 -10 6 0 10 5 10 10 0 6 -4 10 -10 10 -5
0 -10 -4 -10 -10z"/>
<path d="M8843 11283 c15 -2 39 -2 55 0 15 2 2 4 -28 4 -30 0 -43 -2 -27 -4z"/>
<path d="M5993 11273 c9 -2 23 -2 30 0 6 3 -1 5 -18 5 -16 0 -22 -2 -12 -5z"/>
<path d="M6058 11263 c6 -2 18 -2 25 0 6 3 1 5 -13 5 -14 0 -19 -2 -12 -5z"/>
<path d="M9744 11241 c3 -4 24 -11 46 -15 48 -7 79 4 40 15 -37 10 -92 10 -86
0z"/>
<path d="M6240 11228 c19 -5 49 -11 65 -13 17 -2 53 -6 80 -10 28 -4 47 -5 44
-1 -14 15 -116 36 -169 35 -54 -1 -54 -1 -20 -11z"/>
<path d="M10369 11040 c-39 -11 -138 -66 -179 -98 -57 -44 -150 -144 -150
-160 0 -12 3 -12 16 -1 9 7 25 15 37 16 26 4 36 13 14 13 -9 0 -17 5 -17 10 0
6 8 10 18 10 10 0 28 7 41 16 17 12 26 13 34 5 13 -13 31 -15 23 -2 -3 5 1 11
9 15 8 3 15 14 15 25 0 28 27 51 60 51 19 0 33 7 40 20 16 29 140 29 189 -1
18 -11 35 -18 38 -16 2 3 -4 21 -13 40 -27 57 -99 80 -175 57z m-204 -160 c3
-5 1 -10 -4 -10 -6 0 -11 5 -11 10 0 6 2 10 4 10 3 0 8 -4 11 -10z"/>
<path d="M8641 11014 c0 -11 3 -14 6 -6 3 7 2 16 -1 19 -3 4 -6 -2 -5 -13z"/>
<path d="M1815 10951 c-45 -11 -107 -46 -130 -72 -14 -17 -15 -20 -3 -10 10 7
44 14 76 14 51 2 64 6 95 34 21 18 37 35 37 38 0 7 -38 5 -75 -4z"/>
<path d="M8818 10853 c6 -2 18 -2 25 0 6 3 1 5 -13 5 -14 0 -19 -2 -12 -5z"/>
<path d="M8868 10843 c7 -3 16 -2 19 1 4 3 -2 6 -13 5 -11 0 -14 -3 -6 -6z"/>
<path d="M9262 10804 c-5 -9 -8 -26 -5 -38 3 -20 3 -20 -8 2 -7 13 -21 22 -33
21 -17 -1 -18 -2 -3 -6 13 -3 17 -16 18 -56 0 -29 3 -46 6 -38 5 11 7 11 15 0
7 -10 8 -7 4 10 -3 17 -2 21 6 13 16 -16 38 -3 37 22 0 21 0 21 -9 -1 -15 -37
-20 -27 -16 32 4 59 2 65 -12 39z"/>
<path d="M9298 10813 c6 -2 18 -2 25 0 6 3 1 5 -13 5 -14 0 -19 -2 -12 -5z"/>
<path d="M9000 10790 c8 -5 20 -10 25 -10 6 0 3 5 -5 10 -8 5 -19 10 -25 10
-5 0 -3 -5 5 -10z"/>
<path d="M9047 10740 c6 -21 18 -26 28 -11 3 6 -3 15 -14 20 -16 9 -18 8 -14
-9z"/>
<path d="M9924 10648 c-9 -18 -21 -36 -25 -39 -5 -3 -9 -53 -10 -110 0 -111
17 -202 51 -269 25 -49 98 -115 145 -130 47 -15 139 -7 189 17 40 18 49 38 14
28 -38 -12 -43 -11 -41 10 1 11 0 14 -3 8 -3 -7 -21 -13 -40 -13 -27 0 -34 4
-34 20 0 11 -4 20 -9 20 -5 0 -7 9 -4 20 6 22 -7 26 -24 9 -14 -14 -36 -1 -29
17 5 13 -39 44 -64 44 -20 0 -9 -29 13 -32 12 -2 20 -7 17 -13 -5 -12 -33 -7
-38 6 -2 5 -9 9 -15 9 -18 1 -68 85 -92 154 -30 85 -32 158 -6 194 20 29 38
82 27 82 -3 0 -13 -15 -22 -32z"/>
<path d="M9774 10625 c-3 -8 -4 -20 -2 -27 3 -7 7 -1 10 15 6 29 1 36 -8 12z"/>
<path d="M3565 10580 c3 -5 8 -10 11 -10 2 0 4 5 4 10 0 6 -5 10 -11 10 -5 0
-7 -4 -4 -10z"/>
<path d="M3900 10512 c0 -5 7 -9 15 -9 8 0 12 4 9 9 -3 4 -9 8 -15 8 -5 0 -9
-4 -9 -8z"/>
<path d="M4525 10440 l-50 -7 65 0 c36 -1 76 3 90 7 21 7 19 8 -15 7 -22 0
-62 -3 -90 -7z"/>
<path d="M4216 10407 c3 -10 9 -15 12 -12 3 3 0 11 -7 18 -10 9 -11 8 -5 -6z"/>
<path d="M4300 10390 c0 -5 5 -10 10 -10 6 0 10 5 10 10 0 6 -4 10 -10 10 -5
0 -10 -4 -10 -10z"/>
<path d="M5568 10383 c7 -3 16 -2 19 1 4 3 -2 6 -13 5 -11 0 -14 -3 -6 -6z"/>
<path d="M5618 10373 c7 -3 16 -2 19 1 4 3 -2 6 -13 5 -11 0 -14 -3 -6 -6z"/>
<path d="M5385 10361 c-17 -7 -14 -10 18 -20 41 -14 124 -6 97 9 -24 12 -93
19 -115 11z"/>
<path d="M10058 10303 c7 -3 16 -2 19 1 4 3 -2 6 -13 5 -11 0 -14 -3 -6 -6z"/>
<path d="M10140 10250 c0 -5 5 -10 10 -10 6 0 10 5 10 10 0 6 -4 10 -10 10 -5
0 -10 -4 -10 -10z"/>
<path d="M10238 10253 c7 -3 16 -2 19 1 4 3 -2 6 -13 5 -11 0 -14 -3 -6 -6z"/>
<path d="M6050 10096 c-68 -19 -132 -50 -207 -99 -75 -49 -163 -128 -163 -146
0 -6 15 -11 34 -11 23 0 42 9 65 31 18 17 36 27 39 23 4 -3 1 -9 -5 -11 -18
-6 -16 -23 2 -23 8 0 15 5 15 10 0 6 5 10 11 10 5 0 7 -5 3 -12 -4 -7 -3 -8 4
-4 7 4 12 15 12 24 0 14 2 14 9 3 6 -10 9 -3 9 22 0 48 14 70 23 37 7 -24 7
-24 9 5 1 17 4 25 6 19 5 -13 64 -6 79 10 6 6 14 18 17 27 5 12 21 17 60 19
29 1 64 2 78 3 71 3 100 -5 158 -43 34 -22 62 -37 62 -34 0 18 -44 86 -70 107
-55 46 -154 59 -250 33z"/>
<path d="M5906 9908 c3 -5 10 -6 15 -3 13 9 11 12 -6 12 -8 0 -12 -4 -9 -9z"/>
<path d="M5690 9820 c0 -5 5 -10 10 -10 6 0 10 5 10 10 0 6 -4 10 -10 10 -5 0
-10 -4 -10 -10z"/>
<path d="M11992 9794 c-28 -21 -2 -34 69 -36 77 -3 94 4 76 33 -10 16 -22 19
-70 18 -32 -1 -65 -8 -75 -15z"/>
<path d="M5327 9703 c-4 -3 -7 -25 -6 -47 1 -39 1 -40 9 -11 4 17 11 38 15 48
7 17 -5 24 -18 10z"/>
<path d="M10125 9700 c3 -5 8 -10 11 -10 2 0 4 5 4 10 0 6 -5 10 -11 10 -5 0
-7 -4 -4 -10z"/>
<path d="M13873 9664 c-12 -13 -19 -25 -15 -28 4 -2 39 -7 77 -11 39 -3 84 -8
100 -10 17 -3 68 -9 115 -15 47 -6 162 -22 257 -35 94 -14 174 -25 177 -25 16
0 3 -19 -16 -26 -29 -9 -8 -20 57 -28 36 -5 46 -4 35 3 -10 7 -11 11 -2 11 22
0 13 19 -13 26 -53 13 -16 13 46 0 60 -13 62 -15 32 -21 -18 -4 -31 -11 -28
-15 3 -4 -9 -13 -26 -21 l-32 -13 44 -13 c60 -17 110 -17 103 1 -3 7 2 16 10
19 11 4 16 1 16 -11 0 -15 2 -15 10 -2 8 11 12 12 18 3 4 -7 44 -15 92 -19
l84 -7 -20 20 c-10 11 -26 23 -34 27 -52 22 653 -138 793 -180 11 -3 17 0 17
9 0 9 -13 17 -32 20 -71 10 -289 70 -301 82 -7 6 -21 12 -32 12 -11 0 -33 1
-50 2 l-30 3 35 10 35 11 -30 7 c-16 5 -47 10 -68 13 -35 5 -37 4 -25 -10 12
-14 8 -15 -37 -9 -28 5 -58 12 -67 17 -9 5 -31 9 -49 9 -26 0 -30 3 -21 12 10
10 26 8 76 -5 74 -20 76 -20 76 -8 0 5 -21 12 -47 16 -44 6 -46 8 -28 21 25
18 5 19 -56 1 -51 -14 -111 -11 -88 5 10 6 2 8 -24 3 -26 -4 -37 -3 -32 4 4 7
-5 9 -27 6 -32 -5 -27 -1 21 17 13 5 21 11 19 14 -3 2 -27 -4 -54 -14 -31 -12
-43 -21 -33 -25 8 -4 1 -5 -16 -2 -16 3 -37 0 -45 -6 -12 -8 -9 -9 10 -4 21 5
22 4 7 -5 -9 -6 -27 -8 -38 -5 -16 5 -19 4 -14 -6 6 -9 3 -11 -9 -6 -10 4 -20
7 -22 7 -2 0 -4 6 -4 13 0 8 19 20 41 27 l42 14 -29 8 c-16 5 -40 6 -52 3 -16
-4 -21 -2 -17 5 5 8 -4 9 -30 4 -25 -4 -36 -3 -32 3 4 6 -14 13 -46 17 -28 4
-68 10 -87 13 -19 3 -46 6 -60 7 -14 1 -30 5 -37 9 -6 4 -14 3 -18 -3 -3 -5
-18 -7 -33 -4 -21 4 -24 3 -12 -5 13 -9 13 -11 -2 -11 -10 0 -18 4 -18 8 0 5
-15 7 -32 6 -18 -2 -25 -1 -15 2 9 3 17 12 17 20 0 10 -12 14 -42 14 -60 0
-94 -10 -76 -22 9 -7 5 -8 -12 -4 -14 3 -37 6 -52 6 -16 0 -28 5 -28 11 0 7
10 9 28 4 24 -6 25 -5 12 9 -15 15 -199 47 -256 45 -17 -1 -38 -11 -51 -25z
m92 -4 c-18 -7 -17 -8 10 -13 17 -2 12 -2 -10 0 -22 2 -48 4 -57 4 -10 0 -18
4 -18 10 0 5 21 9 48 8 34 0 42 -3 27 -9z m100 -20 c3 -5 1 -10 -4 -10 -6 0
-11 5 -11 10 0 6 2 10 4 10 3 0 8 -4 11 -10z m228 -27 c-7 -2 -21 -2 -30 0
-10 3 -4 5 12 5 17 0 24 -2 18 -5z m205 -30 c-10 -2 -26 -2 -35 0 -10 3 -2 5
17 5 19 0 27 -2 18 -5z m159 -13 c15 0 22 -4 17 -11 -7 -12 -69 -4 -94 13 -11
7 -5 8 19 4 18 -3 44 -6 58 -6z m-50 -42 c-3 -8 -6 -5 -6 6 -1 11 2 17 5 13 3
-3 4 -12 1 -19z m316 -42 c21 -16 22 -30 2 -22 -8 3 -15 1 -15 -4 0 -15 -46
-12 -59 4 -14 17 9 29 36 19 11 -4 14 -3 9 5 -10 16 5 15 27 -2z m407 -46 c-8
-5 -22 -9 -30 -9 -10 0 -8 3 5 9 27 12 43 12 25 0z"/>
<path d="M5485 9618 l-37 -63 5 -95 c11 -171 56 -288 142 -371 84 -82 184
-117 294 -104 85 9 117 22 117 45 0 24 -11 26 -20 5 -5 -15 -46 -22 -46 -7 0
4 -17 8 -37 9 -20 1 -40 8 -44 15 -5 7 -9 10 -9 5 0 -4 -17 2 -37 13 -21 11
-50 20 -65 20 -17 0 -28 6 -30 17 -3 15 -4 15 -21 -1 -16 -17 -20 -15 -77 46
-33 35 -60 69 -60 76 0 7 -7 15 -15 18 -8 3 -17 26 -21 50 -3 24 -12 44 -18
44 -8 0 -11 13 -8 36 3 24 1 34 -6 30 -6 -4 -12 17 -14 56 -4 49 0 75 18 118
26 63 37 100 31 100 -3 0 -21 -28 -42 -62z m-18 -140 c-3 -7 -5 -2 -5 12 0 14
2 19 5 13 2 -7 2 -19 0 -25z"/>
<path d="M9248 9633 c7 -3 16 -2 19 1 4 3 -2 6 -13 5 -11 0 -14 -3 -6 -6z"/>
<path d="M9330 9609 c0 -5 9 -9 20 -9 11 0 20 2 20 4 0 2 -9 6 -20 9 -11 3
-20 1 -20 -4z"/>
<path d="M9387 9597 c-3 -9 9 -11 45 -8 58 4 58 6 2 15 -29 4 -43 2 -47 -7z"/>
<path d="M10025 9580 c27 -12 43 -12 25 0 -8 5 -22 9 -30 9 -10 0 -8 -3 5 -9z"/>
<path d="M9538 9573 c7 -3 16 -2 19 1 4 3 -2 6 -13 5 -11 0 -14 -3 -6 -6z"/>
<path d="M11918 9573 c6 -2 18 -2 25 0 6 3 1 5 -13 5 -14 0 -19 -2 -12 -5z"/>
<path d="M12585 9569 c-8 -11 22 -49 38 -49 6 0 1 8 -10 18 -11 9 -18 23 -16
30 6 15 -3 16 -12 1z"/>
<path d="M10085 9561 c13 -11 77 -32 82 -27 2 2 -17 11 -44 20 -26 9 -43 12
-38 7z"/>
<path d="M12627 9556 c-3 -8 0 -17 8 -19 7 -3 12 0 11 8 -3 22 -13 27 -19 11z"/>
<path d="M9478 9553 c7 -3 16 -2 19 1 4 3 -2 6 -13 5 -11 0 -14 -3 -6 -6z"/>
<path d="M11985 9538 c-27 -5 -56 -15 -64 -22 -11 -12 2 -15 76 -21 50 -4 96
-11 104 -16 9 -6 -22 -6 -81 -2 -121 10 -341 10 -402 0 -39 -7 -58 -18 -100
-59 -29 -28 -44 -43 -32 -34 26 20 41 21 24 1 -9 -10 -9 -15 -1 -15 11 0 15
13 12 39 -2 7 2 10 8 7 6 -4 28 2 50 14 22 11 55 20 73 21 28 0 30 2 13 9 -22
9 50 15 135 10 51 -2 79 -18 58 -31 -10 -7 -9 -9 3 -9 9 0 28 -11 43 -25 l26
-24 -22 -5 c-13 -3 -65 -7 -115 -9 -51 -2 -96 -6 -100 -10 -10 -10 15 -32 67
-60 25 -13 74 -40 110 -61 157 -92 366 -200 417 -217 21 -7 52 -20 70 -30 17
-10 33 -15 36 -13 2 3 7 -1 10 -9 11 -30 -146 -4 -198 33 -5 4 -22 10 -37 14
-15 3 -33 12 -40 19 -7 7 -35 18 -63 25 -27 7 -54 18 -60 24 -7 7 -6 9 2 4 6
-3 15 -1 19 5 4 8 -3 9 -25 4 -20 -4 -31 -3 -31 4 0 6 -11 11 -25 11 -18 0
-23 4 -18 16 4 12 0 14 -23 8 -27 -7 -28 -6 -14 11 14 17 13 18 -12 11 -18 -4
-28 -2 -28 4 0 6 -5 8 -10 5 -15 -9 -71 5 -65 16 4 5 -1 6 -9 3 -9 -3 -16 -1
-16 6 0 6 -4 9 -9 6 -8 -5 -46 9 -93 35 -10 5 -24 9 -32 9 -15 0 -26 21 -26
49 0 13 -15 23 -51 34 -68 22 -99 22 -99 0 0 -10 -18 -30 -39 -45 -40 -29 -71
-80 -71 -118 0 -26 53 -102 100 -143 30 -27 114 -83 239 -160 33 -20 61 -41
61 -45 0 -32 -154 -30 -216 3 -16 8 -45 15 -64 15 -38 1 -125 22 -136 33 -4 4
-20 7 -35 7 -15 0 -31 5 -34 10 -3 6 -13 10 -21 10 -16 0 -106 40 -114 51 -3
4 -24 12 -47 19 -24 7 -43 17 -43 22 0 13 -20 9 -36 -7 -9 -8 -24 -15 -35 -15
-10 0 -19 -2 -19 -5 0 -3 21 -28 48 -54 93 -96 99 -118 53 -181 -30 -42 -89
-90 -110 -90 -6 0 -11 -19 -11 -41 l0 -42 48 6 c26 2 39 3 30 0 -14 -3 -18
-15 -18 -53 0 -51 9 -60 56 -60 13 0 24 -5 24 -10 0 -6 -6 -10 -12 -9 -30 4
-49 -2 -43 -12 4 -6 19 -10 33 -9 53 4 83 0 77 -9 -10 -16 32 -31 82 -30 72 2
158 -42 151 -78 -3 -15 -21 -24 -75 -39 -8 -2 -13 -21 -13 -48 0 -26 -5 -46
-12 -49 -7 -2 0 -8 16 -12 20 -6 31 -4 34 3 5 16 29 15 35 0 2 -7 0 -25 -6
-40 -9 -28 -22 -36 -29 -18 -2 6 -8 6 -18 0 -13 -8 -12 -10 3 -10 9 0 17 -4
17 -9 0 -5 10 -12 23 -14 12 -2 2 -2 -23 0 -25 3 -47 8 -50 12 -3 3 -34 7 -70
8 -56 1 -60 0 -30 -8 81 -20 213 -39 231 -34 10 4 19 2 19 -3 0 -6 23 -16 50
-23 l50 -13 0 -57 c0 -82 35 -101 163 -87 71 7 116 21 217 66 24 10 67 16 133
16 88 1 98 3 93 18 -2 10 -1 18 4 18 4 0 11 -12 15 -27 8 -27 9 -26 22 20 8
26 18 47 23 47 5 0 5 -13 0 -30 -5 -18 -5 -30 1 -30 16 0 10 -18 -8 -23 -14
-4 -12 -5 5 -6 19 -1 22 4 22 39 0 38 2 40 30 40 28 0 30 -2 32 -42 l1 -43 4
39 c4 33 0 43 -19 58 l-23 17 27 26 c19 17 38 25 64 25 35 0 36 1 21 18 -26
28 -21 32 23 15 22 -9 40 -20 40 -25 0 -4 7 -8 15 -8 8 0 15 9 15 20 0 20 14
25 54 21 10 0 28 9 40 22 30 33 108 50 174 37 58 -11 122 6 122 32 0 10 2 10
9 0 6 -10 31 -13 100 -9 87 4 138 16 75 18 -33 1 -25 5 29 14 23 4 37 11 37
20 0 11 13 15 43 16 23 1 47 2 52 4 6 1 14 3 19 3 5 1 3 8 -3 16 -9 10 -8 15
4 20 8 3 15 16 15 30 0 14 5 28 10 31 6 3 10 10 10 16 0 5 -4 9 -10 9 -5 0
-10 -7 -10 -15 0 -17 -19 -21 -21 -5 -1 6 -2 15 -3 22 -2 16 -26 22 -27 6 -1
-7 -5 10 -9 37 -4 28 -3 55 2 61 5 7 30 15 56 19 26 4 55 11 65 17 10 5 79 18
155 29 75 11 138 22 140 24 10 9 -12 25 -36 26 l-27 1 30 8 c28 7 29 8 5 10
l-25 2 25 8 c14 5 -47 5 -135 2 -161 -7 -292 -7 -375 -1 -32 3 -46 9 -48 21
-4 20 64 47 224 89 61 15 150 42 197 58 48 16 106 32 129 36 62 11 176 53 220
83 40 26 46 42 8 22 -54 -29 -171 -61 -240 -66 -53 -3 -71 -2 -60 5 12 9 10
11 -10 12 l-25 1 25 7 c14 4 41 11 60 16 l35 9 -30 7 -30 7 30 1 c17 1 46 10
65 21 39 21 34 24 -25 10 -137 -31 -177 -34 -238 -16 -32 9 -57 20 -57 25 0 5
15 15 33 21 24 10 27 14 15 17 -22 5 -23 26 -3 47 8 8 15 18 15 22 0 4 18 25
41 47 39 38 40 54 4 58 -5 0 -1 4 10 8 12 5 -12 8 -60 7 -87 -2 -108 1 -99 15
3 5 29 10 57 11 47 1 48 2 12 5 -22 3 -44 9 -50 14 -5 5 -20 9 -35 10 -23 0
-23 1 -5 9 20 9 20 9 0 9 -12 1 -27 -5 -34 -11 -11 -10 -13 -10 -7 0 4 6 2 12
-5 12 -23 0 11 27 42 34 37 7 29 28 -9 26 -54 -4 -67 -1 -54 12 21 21 13 29
-24 22 -27 -5 -35 -4 -30 5 5 7 -3 11 -21 12 -27 2 -27 2 -3 6 32 6 45 18 22
20 -136 13 -161 24 -93 43 22 6 41 13 41 15 0 2 -24 1 -52 -2 -70 -6 -316 13
-332 26 -7 6 -17 7 -21 3 -5 -4 -5 -2 -2 4 4 7 0 18 -9 25 -15 13 -26 5 -37
-25 -2 -6 -50 0 -110 12 -116 24 -343 29 -442 10z m233 -74 c96 -11 116 -19
126 -45 7 -21 3 -30 -29 -62 -41 -41 -63 -38 -46 5 5 15 15 29 20 33 16 9 13
22 -5 29 -15 6 -15 4 -3 -11 11 -14 9 -14 -11 2 -14 11 -27 22 -30 25 -7 7
-28 12 -67 18 -18 2 -33 9 -33 14 0 6 7 7 16 4 9 -3 37 -9 62 -12z m-618 -8
c0 -3 -4 -8 -10 -11 -5 -3 -10 -1 -10 4 0 6 5 11 10 11 6 0 10 -2 10 -4z m990
-17 c0 -7 12 -9 30 -7 17 3 33 1 36 -4 3 -4 -3 -8 -13 -8 -11 0 -23 -4 -28 -8
-12 -11 -95 6 -95 18 0 5 12 11 28 13 15 2 30 5 35 6 4 0 7 -4 7 -10z m-505
-72 c7 -7 4 -8 -8 -3 -10 3 -36 6 -58 6 -21 0 -39 4 -39 10 0 12 91 1 105 -13z
m112 -13 c-3 -3 -12 -4 -19 -1 -8 3 -5 6 6 6 11 1 17 -2 13 -5z m213 -46 c0
-4 20 -10 45 -14 26 -3 53 -13 61 -21 27 -27 75 -104 80 -126 2 -12 7 -42 12
-67 13 -72 3 -94 -42 -98 -21 -2 -42 0 -47 5 -4 4 9 8 29 8 36 0 37 1 40 39 5
58 -33 169 -71 209 -27 28 -46 36 -115 51 -63 14 -87 15 -95 7 -8 -8 -12 -53
-12 -126 0 -66 -4 -110 -9 -105 -9 9 -14 193 -5 220 2 8 9 18 14 22 12 9 115
6 115 -4z m-66 -277 c4 -5 -3 -7 -14 -4 -23 6 -26 13 -6 13 8 0 17 -4 20 -9z
m156 -35 c0 -2 -7 -7 -16 -10 -8 -3 -12 -2 -9 4 6 10 25 14 25 6z m-1483 -43
c2 -5 -11 -10 -29 -10 -18 0 -25 2 -15 4 9 3 17 9 17 15 0 12 23 5 27 -9z
m1429 10 c-3 -4 6 -12 21 -19 28 -13 28 -13 -7 -7 -19 3 -37 7 -39 9 -6 5 10
24 21 24 6 0 8 -3 4 -7z m917 -40 c-7 -2 -21 -2 -30 0 -10 3 -4 5 12 5 17 0
24 -2 18 -5z m40 -40 c-7 -2 -19 -2 -25 0 -7 3 -2 5 12 5 14 0 19 -2 13 -5z
m-313 -423 c0 -5 -2 -10 -4 -10 -3 0 -8 5 -11 10 -3 6 -1 10 4 10 6 0 11 -4
11 -10z m-320 -270 c0 -5 -9 -10 -20 -10 -11 0 -20 5 -20 10 0 6 9 10 20 10
11 0 20 -4 20 -10z m-1346 -82 c-4 -7 -14 -21 -22 -30 -10 -12 -11 -18 -4 -18
7 0 12 -4 12 -9 0 -5 -9 -7 -20 -4 -25 7 -26 41 -2 59 22 17 45 18 36 2z m705
-158 c0 -10 -3 -8 -9 5 -12 27 -12 43 0 25 5 -8 9 -22 9 -30z m-52 -6 c-3 -3
-12 -4 -19 -1 -8 3 -5 6 6 6 11 1 17 -2 13 -5z"/>
<path d="M10190 9524 c0 -7 52 -25 57 -20 2 2 -10 8 -26 14 -17 6 -31 9 -31 6z"/>
<path d="M12716 9508 c3 -5 10 -6 15 -3 13 9 11 12 -6 12 -8 0 -12 -4 -9 -9z"/>
<path d="M10270 9490 c0 -6 7 -10 15 -10 8 0 15 2 15 4 0 2 -7 6 -15 10 -8 3
-15 1 -15 -4z"/>
<path d="M11718 9453 c12 -2 30 -2 40 0 9 3 -1 5 -23 4 -22 0 -30 -2 -17 -4z"/>
<path d="M11793 9453 c9 -2 23 -2 30 0 6 3 -1 5 -18 5 -16 0 -22 -2 -12 -5z"/>
<path d="M15480 9421 c0 -6 9 -11 19 -11 11 0 22 -6 25 -12 3 -7 5 -4 3 7 -2
21 -47 36 -47 16z"/>
<path d="M13260 9380 c6 -11 13 -20 16 -20 2 0 0 9 -6 20 -6 11 -13 20 -16 20
-2 0 0 -9 6 -20z"/>
<path d="M15608 9394 c-25 -24 45 -54 81 -34 16 8 40 6 102 -10 45 -12 86 -19
92 -17 17 5 -165 49 -213 51 -25 0 -48 4 -51 9 -3 4 -8 5 -11 1z"/>
<path d="M8725 9260 c-3 -6 1 -7 9 -4 18 7 21 14 7 14 -6 0 -13 -4 -16 -10z"/>
<path d="M13318 9253 c7 -3 16 -2 19 1 4 3 -2 6 -13 5 -11 0 -14 -3 -6 -6z"/>
<path d="M5660 9170 c0 -5 10 -10 23 -10 13 0 28 -5 35 -12 9 -9 12 -9 12 -1
0 14 -7 18 -42 27 -17 4 -28 2 -28 -4z"/>
<path d="M9488 9173 c7 -3 16 -2 19 1 4 3 -2 6 -13 5 -11 0 -14 -3 -6 -6z"/>
<path d="M11808 9173 c7 -3 16 -2 19 1 4 3 -2 6 -13 5 -11 0 -14 -3 -6 -6z"/>
<path d="M8160 9120 c-9 -6 -10 -10 -3 -10 6 0 15 5 18 10 8 12 4 12 -15 0z"/>
<path d="M4960 9056 c0 -2 8 -10 18 -17 15 -13 16 -12 3 4 -13 16 -21 21 -21
13z"/>
<path d="M5915 8950 c-16 -7 -17 -9 -3 -9 9 -1 20 4 23 9 7 11 7 11 -20 0z"/>
<path d="M13543 8943 c9 -2 23 -2 30 0 6 3 -1 5 -18 5 -16 0 -22 -2 -12 -5z"/>
<path d="M17085 8870 c-18 -8 -17 -9 8 -9 15 -1 27 4 27 9 0 12 -8 12 -35 0z"/>
<path d="M16015 8861 c82 -5 95 -9 130 -37 41 -31 79 -55 60 -37 -5 5 -31 26
-57 46 -46 37 -47 37 -135 35 l-88 -2 90 -5z"/>
<path d="M17201 8860 c-8 -4 -48 -8 -90 -8 -61 0 -77 -3 -79 -15 -4 -18 39
-34 57 -22 6 3 11 1 11 -5 0 -11 58 -12 133 -3 53 7 36 23 -26 24 -29 1 -40 4
-24 6 15 2 27 10 27 16 0 7 4 6 10 -3 5 -8 12 -12 15 -9 10 11 -20 28 -34 19z"/>
<path d="M15850 8847 c0 -8 25 -33 55 -56 l54 -41 125 0 c72 0 127 4 131 10 4
6 -38 10 -120 10 l-127 0 -59 46 c-37 28 -59 40 -59 31z"/>
<path d="M14775 8790 c3 -5 8 -10 11 -10 2 0 4 5 4 10 0 6 -5 10 -11 10 -5 0
-7 -4 -4 -10z"/>
<path d="M15280 8761 c0 -10 168 -49 260 -60 145 -18 230 -22 230 -11 0 5 -17
10 -38 10 -49 0 -376 46 -419 59 -18 5 -33 6 -33 2z"/>
<path d="M14510 8749 c0 -5 5 -7 10 -4 6 3 10 8 10 11 0 2 -4 4 -10 4 -5 0
-10 -5 -10 -11z"/>
<path d="M14710 8740 c-12 -8 -10 -10 8 -10 13 0 20 4 17 10 -7 12 -6 12 -25
0z"/>
<path d="M14950 8730 c0 -5 5 -10 11 -10 5 0 7 5 4 10 -3 6 -8 10 -11 10 -2 0
-4 -4 -4 -10z"/>
<path d="M15048 8733 c7 -3 16 -2 19 1 4 3 -2 6 -13 5 -11 0 -14 -3 -6 -6z"/>
<path d="M14400 8719 c0 -5 5 -7 10 -4 6 3 10 8 10 11 0 2 -4 4 -10 4 -5 0
-10 -5 -10 -11z"/>
<path d="M14600 8714 l-25 -15 25 7 c28 7 35 12 29 18 -2 2 -15 -2 -29 -10z"/>
<path d="M14305 8695 c-25 -12 -26 -14 -5 -9 28 7 60 23 45 23 -5 0 -23 -6
-40 -14z"/>
<path d="M14491 8686 c-20 -11 -21 -14 -7 -19 10 -4 14 -3 11 2 -3 5 5 11 17
13 13 2 18 6 13 10 -6 3 -21 1 -34 -6z"/>
<path d="M8965 8663 c96 -7 205 -7 205 0 0 4 -55 6 -122 5 -68 -1 -105 -3 -83
-5z"/>
<path d="M14211 8661 c-7 -5 -9 -11 -5 -14 5 -3 15 1 22 9 14 16 5 18 -17 5z"/>
<path d="M14370 8639 c0 -5 5 -7 10 -4 6 3 10 8 10 11 0 2 -4 4 -10 4 -5 0
-10 -5 -10 -11z"/>
<path d="M8893 8603 c10 -61 24 -65 167 -58 69 4 130 12 135 17 7 7 -37 8
-127 5 l-138 -6 -10 40 c-14 51 -35 52 -27 2z"/>
<path d="M15334 8624 c3 -9 6 -20 6 -25 0 -16 89 -67 143 -83 86 -24 289 -50
339 -42 43 6 46 9 45 34 -3 38 -53 56 -262 93 -210 38 -279 44 -271 23z m156
-24 c14 -5 66 -14 115 -20 123 -15 174 -29 186 -52 6 -11 8 -23 4 -26 -17 -18
-254 13 -341 44 -43 15 -75 58 -51 67 13 5 49 0 87 -13z"/>
<path d="M14450 8600 c-8 -5 -10 -10 -5 -10 6 0 17 5 25 10 8 5 11 10 5 10 -5
0 -17 -5 -25 -10z"/>
<path d="M14070 8578 c14 -7 28 -17 32 -23 5 -6 8 -3 8 8 0 9 -6 17 -14 17 -8
0 -23 2 -33 5 -10 3 -7 0 7 -7z"/>
<path d="M13973 8550 c-37 -22 -39 -26 -18 -34 8 -3 14 0 12 6 -1 7 8 17 21
23 12 5 22 13 22 17 0 11 -1 11 -37 -12z"/>
<path d="M14235 8541 c-3 -5 4 -13 16 -16 28 -9 33 -2 9 13 -11 6 -21 8 -25 3z"/>
<path d="M10810 8500 c0 -5 9 -10 21 -10 11 0 17 5 14 10 -3 6 -13 10 -21 10
-8 0 -14 -4 -14 -10z"/>
<path d="M14000 8494 c0 -1 19 -12 43 -23 23 -12 33 -15 22 -6 -17 13 -18 17
-5 25 10 6 3 8 -23 7 -20 -1 -37 -3 -37 -3z"/>
<path d="M15313 8430 l-30 -57 32 -10 c32 -10 33 -10 56 38 12 27 24 49 27 49
3 0 21 -10 41 -22 65 -41 371 -172 379 -163 9 9 -11 21 -88 50 -41 16 -129 55
-194 88 -66 32 -136 65 -156 72 l-38 13 -29 -58z"/>
<path d="M14155 8471 c-3 -5 -19 -12 -35 -16 -17 -4 -28 -11 -25 -15 6 -10 75
19 75 32 0 11 -7 10 -15 -1z"/>
<path d="M5743 8433 c9 -2 23 -2 30 0 6 3 -1 5 -18 5 -16 0 -22 -2 -12 -5z"/>
<path d="M13738 8419 c-10 -5 -18 -16 -18 -24 0 -30 99 -60 115 -35 9 15 48
12 71 -4 24 -18 15 -27 -33 -37 l-38 -7 45 1 c37 2 46 6 48 23 2 14 -5 24 -23
32 -32 15 -82 16 -90 2 -10 -16 -41 -11 -59 9 -17 19 -17 20 4 31 11 6 31 8
43 5 17 -5 19 -4 7 4 -19 13 -50 13 -72 0z"/>
<path d="M5783 8413 c15 -2 39 -2 55 0 15 2 2 4 -28 4 -30 0 -43 -2 -27 -4z"/>
<path d="M5955 8400 c11 -5 27 -9 35 -9 13 -1 13 0 0 9 -8 5 -24 9 -35 9 l-20
0 20 -9z"/>
<path d="M6010 8390 c0 -6 21 -10 47 -10 56 0 54 6 -4 14 -25 3 -43 1 -43 -4z"/>
<path d="M6145 8370 c-19 -8 -19 -9 3 -9 12 -1 22 4 22 9 0 6 -1 10 -2 9 -2 0
-12 -4 -23 -9z"/>
<path d="M13589 8314 c-12 -23 -12 -27 6 -40 23 -17 78 -18 104 -3 23 15 71 4
71 -16 0 -16 -42 -30 -65 -21 -8 3 -15 1 -15 -4 0 -11 59 -14 84 -4 48 18 -16
73 -69 60 -14 -3 -35 -9 -47 -12 -25 -6 -68 19 -55 32 4 4 23 8 42 8 40 1 46
11 13 20 -41 10 -54 6 -69 -20z"/>
<path d="M15190 8294 c1 -27 400 -144 493 -144 48 0 26 10 -75 35 -51 12 -154
41 -228 65 -151 47 -190 56 -190 44z"/>
<path d="M13180 8265 c0 -9 5 -15 11 -13 6 2 11 8 11 13 0 5 -5 11 -11 13 -6
2 -11 -4 -11 -13z"/>
<path d="M13538 8199 c69 -34 81 -43 71 -55 -18 -22 -43 -17 -119 21 -70 35
-90 41 -90 28 0 -15 145 -73 181 -73 36 0 59 14 59 38 0 15 -138 82 -167 81
-10 0 19 -18 65 -40z"/>
<path d="M7548 8223 c6 -2 18 -2 25 0 6 3 1 5 -13 5 -14 0 -19 -2 -12 -5z"/>
<path d="M11115 8180 c-3 -5 -1 -10 4 -10 6 0 11 5 11 10 0 6 -2 10 -4 10 -3
0 -8 -4 -11 -10z"/>
<path d="M12810 8170 c0 -6 33 -10 83 -9 59 1 74 4 52 9 -45 11 -135 11 -135
0z"/>
<path d="M11095 8140 c3 -5 13 -10 21 -10 8 0 14 5 14 10 0 6 -9 10 -21 10
-11 0 -17 -4 -14 -10z"/>
<path d="M10885 8130 c-3 -6 1 -7 9 -4 18 7 21 14 7 14 -6 0 -13 -4 -16 -10z"/>
<path d="M15230 8105 c-14 -8 -33 -14 -42 -15 -28 0 -21 -18 10 -25 37 -8 134
31 112 45 -21 14 -51 12 -80 -5z"/>
<path d="M14567 8057 c-56 -11 -87 -34 -87 -62 0 -6 55 -39 123 -74 152 -78
217 -90 348 -63 46 10 90 21 97 25 16 11 15 44 -1 50 -18 7 -78 -6 -78 -16 1
-4 1 -11 1 -16 0 -13 -122 -32 -161 -25 -19 4 -65 21 -104 40 -154 73 -165 94
-62 114 45 8 75 8 109 1 28 -7 56 -7 70 -2 l23 9 -25 10 c-43 16 -190 22 -253
9z"/>
<path d="M5350 8001 c0 -5 7 -12 16 -15 14 -5 15 -4 4 9 -14 17 -20 19 -20 6z"/>
<path d="M13974 8001 c-42 -5 -56 -12 -78 -38 l-27 -33 23 -22 c127 -124 147
-132 334 -132 141 1 153 2 183 23 17 12 29 27 26 32 -10 15 -92 11 -98 -5 -7
-17 -53 -26 -139 -27 -79 -1 -93 5 -171 83 -57 57 -60 61 -42 74 28 21 170 23
189 4 12 -12 116 -13 116 -2 0 5 -35 19 -79 30 -77 22 -135 25 -237 13z"/>
<path d="M13510 7947 c0 -18 27 -55 79 -109 25 -27 42 -48 38 -48 -11 0 -174
67 -219 90 -20 10 -38 16 -41 14 -3 -3 -28 6 -56 20 -59 30 -151 37 -151 11 0
-8 35 -55 79 -103 121 -134 118 -132 173 -124 l48 7 -50 53 c-28 30 -55 62
-60 73 -10 17 -8 18 17 8 16 -5 47 -19 70 -30 61 -30 260 -89 297 -89 50 0 60
13 31 40 -14 13 -55 63 -92 112 l-67 88 -48 0 c-32 0 -48 -4 -48 -13z"/>
<path d="M5430 7932 c1 -8 192 -74 197 -68 3 2 -26 15 -64 29 -102 37 -133 47
-133 39z"/>
<path d="M12338 7903 c7 -3 16 -2 19 1 4 3 -2 6 -13 5 -11 0 -14 -3 -6 -6z"/>
<path d="M12470 7900 c-20 -6 -21 -8 -5 -8 11 0 29 3 40 8 25 11 -1 11 -35 0z"/>
<path d="M5690 7847 c36 -21 70 -30 70 -19 0 5 -12 12 -27 15 -16 3 -37 8 -48
12 -13 4 -12 1 5 -8z"/>
<path d="M10050 7641 c0 -5 9 -11 19 -14 14 -3 18 -1 14 9 -6 15 -33 19 -33 5z"/>
<path d="M13095 7620 l-180 -6 200 -2 200 -2 19 -35 c24 -44 32 -40 10 4 -13
26 -58 59 -67 49 -1 -1 -83 -5 -182 -8z"/>
<path d="M12885 7598 c-7 -17 19 -77 39 -90 13 -9 401 -10 434 -1 57 15 -16
23 -214 23 l-210 0 -21 43 c-16 32 -23 38 -28 25z"/>
<path d="M6760 7360 c0 -5 5 -10 11 -10 5 0 7 5 4 10 -3 6 -8 10 -11 10 -2 0
-4 -4 -4 -10z"/>
<path d="M14898 7153 c7 -3 16 -2 19 1 4 3 -2 6 -13 5 -11 0 -14 -3 -6 -6z"/>
<path d="M14818 7143 c6 -2 18 -2 25 0 6 3 1 5 -13 5 -14 0 -19 -2 -12 -5z"/>
<path d="M14658 7133 c6 -2 18 -2 25 0 6 3 1 5 -13 5 -14 0 -19 -2 -12 -5z"/>
<path d="M14506 7120 c6 -6 21 -6 39 -1 30 9 30 9 -9 10 -26 1 -37 -2 -30 -9z"/>
<path d="M14818 7123 c6 -2 18 -2 25 0 6 3 1 5 -13 5 -14 0 -19 -2 -12 -5z"/>
<path d="M14393 7113 c9 -2 25 -2 35 0 9 3 1 5 -18 5 -19 0 -27 -2 -17 -5z"/>
<path d="M14203 7103 c26 -2 67 -2 90 0 23 2 2 3 -48 3 -49 0 -68 -1 -42 -3z"/>
<path d="M14748 7103 c12 -2 32 -2 45 0 12 2 2 4 -23 4 -25 0 -35 -2 -22 -4z"/>
<path d="M15988 7083 c7 -3 16 -2 19 1 4 3 -2 6 -13 5 -11 0 -14 -3 -6 -6z"/>
<path d="M14738 6983 c7 -3 16 -2 19 1 4 3 -2 6 -13 5 -11 0 -14 -3 -6 -6z"/>
<path d="M8048 6973 c7 -3 16 -2 19 1 4 3 -2 6 -13 5 -11 0 -14 -3 -6 -6z"/>
<path d="M8090 6961 c0 -12 39 -25 47 -17 4 3 -1 6 -10 6 -9 0 -17 5 -17 10 0
6 -4 10 -10 10 -5 0 -10 -4 -10 -9z"/>
<path d="M14618 6963 c6 -2 18 -2 25 0 6 3 1 5 -13 5 -14 0 -19 -2 -12 -5z"/>
<path d="M14503 6943 c9 -2 25 -2 35 0 9 3 1 5 -18 5 -19 0 -27 -2 -17 -5z"/>
<path d="M14975 6840 c-3 -5 1 -10 10 -10 9 0 13 5 10 10 -3 6 -8 10 -10 10
-2 0 -7 -4 -10 -10z"/>
<path d="M14788 6813 c6 -2 18 -2 25 0 6 3 1 5 -13 5 -14 0 -19 -2 -12 -5z"/>
<path d="M14568 6793 c18 -2 45 -2 60 0 15 2 0 4 -33 4 -33 0 -45 -2 -27 -4z"/>
<path d="M14375 6780 l-40 -7 35 -1 c19 0 46 4 60 8 32 10 2 10 -55 0z"/>
<path d="M14298 6763 c6 -2 18 -2 25 0 6 3 1 5 -13 5 -14 0 -19 -2 -12 -5z"/>
</g>
</svg>
